<svg width="380" height="68" fill="none" xmlns="http://www.w3.org/2000/svg"><path fill-rule="evenodd" clip-rule="evenodd" d="M33.334 68h-.006C14.921 67.997 0 52.776 0 34S14.921.003 33.328 0h95.239l-8.369 19.918H88.811l-2.381 5.343h24.908l-8.057 18.458H78.328L67.853 68h-34.52Zm22.381-34.002c0 12.608-10.02 22.83-22.38 22.83-12.361 0-22.382-10.222-22.382-22.83 0-12.607 10.02-22.828 22.381-22.828s22.381 10.22 22.381 22.828Z" fill="url(#a)"/><path d="M117.384 25.258h22.62l-8.096 18.457h-22.619l8.095-18.457ZM81.904 48.57h38.095L111.666 68H73.57l8.334-19.429Z" fill="#5CE6B8"/><path d="M205.7 28.208c-.384 3.136-.992 5.92-1.856 8.352-1.024-2.528-1.76-5.344-2.272-8.352h4.128Zm-15.072 5.888 1.024-.544c-.32-.864-1.056-2.016-1.856-2.88h2.72a725.525 725.525 0 0 1-.096 3.424h-1.792Zm-.32 6.752 1.184-.704c-.416-.864-1.248-2.016-2.112-2.944h2.912c-.064 1.472-.16 2.656-.224 3.648h-1.76Zm-1.824-3.648-1.568.864c.736.832 1.536 1.888 2.016 2.784h-2.88c.128-1.152.256-2.368.352-3.648h2.08Zm.448-6.528-1.504.768a12.33 12.33 0 0 1 1.76 2.656h-2.496c.096-1.152.16-2.304.256-3.424h1.984Zm21.76-2.464v-3.424h-8.128c.448-1.696.832-3.52 1.12-5.312l-3.552-.576c-.704 4.96-2.08 9.856-4.256 12.96l.096-2.72V27.6H185.38c.352-.704.672-1.44.992-2.208h11.232v-3.264h-10.08c.224-.832.448-1.632.608-2.496l-3.52-.704c-.768 3.68-2.176 7.36-4.096 9.664.832.48 2.336 1.536 3.008 2.144l.032-.032c-.096 1.12-.16 2.24-.256 3.392h-2.24V37.2h1.952c-.256 2.496-.544 4.864-.832 6.72h9.504c-.128.512-.256.832-.384 1.024-.288.448-.512.544-.96.544-.512 0-1.44-.032-2.496-.128.48.896.832 2.272.896 3.2 1.312.064 2.528.064 3.392-.096.928-.192 1.6-.48 2.176-1.44.384-.48.64-1.44.864-3.104h2.464v-3.072h-2.176c.064-1.056.16-2.24.224-3.648h2.144v-3.104h-2.016l.064-1.888c.8.576 2.048 1.792 2.528 2.432.32-.448.608-.928.928-1.44.64 2.72 1.44 5.216 2.464 7.424-1.44 2.176-3.328 3.936-5.76 5.248.768.672 2.048 2.144 2.496 2.816a19.597 19.597 0 0 0 5.184-4.64c1.28 1.888 2.88 3.52 4.768 4.768.576-.96 1.728-2.4 2.56-3.104-2.112-1.184-3.84-2.976-5.184-5.12 1.664-3.392 2.752-7.52 3.392-12.384h1.44Zm12.064 4.096-2.656.736v-4.576h2.912v-3.488H220.1V18.96h-3.488v6.016h-3.328v3.488h3.328v5.504c-1.44.384-2.752.704-3.84.928l.896 3.648 2.944-.832v6.976c0 .416-.128.544-.512.544-.416.032-1.568.032-2.688-.032.416 1.024.864 2.56.992 3.488 2.016.032 3.424-.096 4.416-.704.992-.544 1.28-1.504 1.28-3.296v-8l3.168-.96-.512-3.424Zm11.552.576h3.2v1.664h-3.2V32.88Zm0-4.416h3.2v1.472h-3.2v-1.472Zm0 13.664h7.104v-2.944h-7.104v-1.792h6.72V32.88h2.048v-2.944h-2.048v-4.32h-6.72v-1.344h8.032v-2.976h-8.032v-2.368h-3.52v2.368h-7.296v2.976h7.296v1.344h-5.952v2.848h5.952v1.472h-7.808v2.944h7.808v1.664h-5.952v2.848h5.952v6.816c-1.312-.608-2.432-1.536-3.232-3.008.224-.928.416-1.952.576-2.976l-3.456-.416c-.48 3.808-1.664 7.104-4 9.152.8.48 2.24 1.568 2.816 2.144 1.216-1.184 2.176-2.656 2.912-4.416 2.464 2.976 5.92 3.744 10.336 3.744h5.312c.16-.928.608-2.464 1.056-3.232-1.312.032-5.12.032-6.112.032a24.41 24.41 0 0 1-2.688-.128v-2.976Zm22.368-9.984v-7.808h7.328v7.808h-7.328Zm17.888 0h-6.56v-7.808h5.6v-3.584h-27.008v3.584h6.176v7.808h-7.232v3.648h6.912c-.608 3.776-2.336 7.456-7.008 10.272.96.64 2.432 1.984 3.072 2.848 5.568-3.488 7.36-8.352 7.936-13.12h7.552v13.024h4V35.792h6.56v-3.648Zm31.52 5.12v-3.776H294.5v-4.352h9.92V25.36h-5.312a91.89 91.89 0 0 0 3.136-5.056l-4.16-1.376c-.768 1.952-2.016 4.544-3.2 6.432h-7.712l1.952-1.088c-.608-1.504-1.952-3.68-3.36-5.28l-3.2 1.6c1.088 1.408 2.24 3.296 2.848 4.768H280.1v3.776h9.92v4.352h-12.032v3.776h11.264c-1.216 2.912-4.448 5.824-12.224 8.064 1.024.896 2.304 2.56 2.816 3.424 7.328-2.24 11.104-5.312 12.96-8.544 2.688 4.096 6.432 6.912 11.744 8.384.576-1.12 1.76-2.88 2.688-3.744-5.504-1.184-9.504-3.84-11.936-7.584h10.784Z" fill="#0C1116"/><defs><linearGradient id="a" x1="0" y1="34" x2="114.401" y2="34" gradientUnits="userSpaceOnUse"><stop stop-color="#443F5A"/><stop offset="1" stop-color="#5A527D"/></linearGradient></defs></svg>
