<svg width="580" height="670" fill="none" xmlns="http://www.w3.org/2000/svg"><path opacity=".6" d="M0 20C0 8.954 8.954 0 20 0h560v670H20c-11.046 0-20-8.954-20-20V20Z" fill="#F4FDFC"/><path opacity=".2" fill-rule="evenodd" clip-rule="evenodd" d="M165.993 273.678c-52.527-16.089-149.848 32.518-104.098 91.771 27.235 35.273 19.42 72.803 13.024 103.51-8.881 42.648-15.022 72.133 79.292 64.129v-.455h5.466c13.752-1.037 25.694-.968 36.12 0h310.82c43.867-61.353 22.145-130.44-33.038-158.252-36.112-18.2-19.322-50.029-.572-85.572 23.729-44.984 50.597-95.918-22.671-132.702-65.755-33.012-182.449-31.754-248.984 52.633-17.457 22.141-24.846 44.387-28.983 56.843-2.956 8.9-4.252 12.803-6.376 8.095Z" fill="#3CC798"/><rect x="286.375" y="170.473" width="217.024" height="177.004" rx="19" fill="#fff" stroke="#6E6EF7" stroke-width="2"/><path fill-rule="evenodd" clip-rule="evenodd" d="M320.005 197.876c0 5.071-4.091 9.181-9.139 9.181-5.048 0-9.139-4.11-9.139-9.181 0-5.07 4.091-9.181 9.139-9.181 5.048 0 9.139 4.111 9.139 9.181" fill="#D8D8FE"/><path fill-rule="evenodd" clip-rule="evenodd" d="M346.919 197.876c0 5.071-4.091 9.181-9.139 9.181-5.048 0-9.139-4.11-9.139-9.181 0-5.07 4.091-9.181 9.139-9.181 5.048 0 9.139 4.111 9.139 9.181" fill="#fff"/><path d="M346.919 197.876c0 5.071-4.091 9.181-9.139 9.181-5.048 0-9.139-4.11-9.139-9.181 0-5.07 4.091-9.181 9.139-9.181 5.048 0 9.139 4.111 9.139 9.181" stroke="#8484F8" stroke-width="2"/><path fill-rule="evenodd" clip-rule="evenodd" d="M407.343 206.64h-36.387c-4.818 0-8.722-3.924-8.722-8.764 0-4.839 3.904-8.763 8.722-8.763h36.387c4.817 0 8.721 3.924 8.721 8.763 0 4.84-3.904 8.764-8.721 8.764" fill="#fff"/><path d="M407.343 206.64h-36.387c-4.818 0-8.722-3.924-8.722-8.764 0-4.839 3.904-8.763 8.722-8.763h36.387c4.817 0 8.721 3.924 8.721 8.763 0 4.84-3.904 8.764-8.721 8.764" stroke="#8484F8" stroke-width="2"/><path fill-rule="evenodd" clip-rule="evenodd" d="M395.055 413.45h4.322v-.723h-4.322v.723Zm8.648 0h4.323v-.723h-4.323v.723Zm8.641 0h4.322v-.723h-4.322v.723Zm8.648 0h4.323v-.723h-4.323v.723Zm8.641 0h4.322v-.723h-4.322v.723Zm8.633 0h4.322v-.723h-4.322v.723Zm8.656 0h4.322v-.723h-4.322v.723Zm8.64 0h4.323v-.723h-4.323v.723Zm8.657 0h4.322v-.723h-4.322v.723Zm8.633 0h4.322v-.723h-4.322v.723Zm12.563 1.434a12.977 12.977 0 0 0-3.985-1.288l.106-.715c1.47.223 2.885.68 4.207 1.357l-.328.646Zm-98.554.174-.345-.633a13.663 13.663 0 0 1 4.166-1.48l.13.712a12.931 12.931 0 0 0-3.951 1.401Zm104.354 5.75a13.131 13.131 0 0 0-2.426-3.43l.516-.507a13.88 13.88 0 0 1 2.559 3.618l-.649.319Zm-109.972.336-.657-.301a13.902 13.902 0 0 1 2.458-3.691l.527.495a13.05 13.05 0 0 0-2.328 3.497Zm112.041 7.976h-.721v-2.51c0-.593-.04-1.192-.118-1.78l.712-.096c.084.617.127 1.248.127 1.876v2.51Zm-113.228.38h-.72v-2.892c0-.492.026-.993.078-1.485l.717.078c-.049.466-.075.941-.075 1.407v2.892Zm112.499 8.301h.72v-4.342h-.72v4.342Zm-113.219.383h.72v-4.342h-.72v4.342Zm113.219 8.301h.72v-4.342h-.72v4.342Zm-113.219.382h.72v-4.342h-.72v4.342Zm113.219 8.301h.72v-4.342h-.72v4.342Zm-113.219.383h.72v-4.342h-.72v4.342Zm113.219 8.301h.72v-4.342h-.72v4.342Zm-113.219.383h.72v-4.342h-.72v4.342Zm113.219 8.302h.72v-4.342h-.72v4.342Zm-113.219.381h.72v-4.342h-.72v4.342Zm113.525 8.353-.697-.176c.265-1.054.401-2.145.401-3.243v-.975h.72v.975c0 1.158-.141 2.308-.424 3.419Zm-113.001.385a13.965 13.965 0 0 1-.524-3.801v-.593h.72v.593c0 1.225.167 2.437.496 3.601l-.692.2Zm108.296 6.992-.453-.562a13.136 13.136 0 0 0 2.795-3.135l.608.394a13.885 13.885 0 0 1-2.95 3.303Zm-103.382.245a13.895 13.895 0 0 1-3.04-3.219l.594-.408a13.23 13.23 0 0 0 2.882 3.054l-.436.573Zm95.213 2.833-.026-.723a12.957 12.957 0 0 0 4.106-.825l.254.677a13.775 13.775 0 0 1-4.334.871Zm-86.961.009a13.797 13.797 0 0 1-4.354-.747l.233-.683c1.323.454 2.712.692 4.127.706l-.006.724Zm4.318-.002h4.322v-.723h-4.322v.723Zm8.648 0h4.323v-.723h-4.323v.723Zm8.649 0h4.322v-.723h-4.322v.723Zm8.648 0h4.323v-.723h-4.323v.723Zm8.641 0h4.322v-.723h-4.322v.723Zm8.64 0h4.323v-.723h-4.323v.723Zm8.641 0h4.322v-.723h-4.322v.723Zm8.648 0h4.323v-.723h-4.323v.723Zm8.633 0h4.323v-.723h-4.323v.723Zm8.656 0h4.323v-.723h-4.323v.723Z" fill="#72D99F"/><path fill-rule="evenodd" clip-rule="evenodd" d="M471.596 479.189h-91.954c-5.872 0-10.634-4.785-10.634-10.688v-59.069c0-5.902 4.762-10.684 10.634-10.684h91.954c5.875 0 10.635 4.782 10.635 10.684v59.069c0 5.903-4.76 10.688-10.635 10.688" fill="#8484F8"/><path fill-rule="evenodd" clip-rule="evenodd" d="M388.688 464.62a6.13 6.13 0 0 0 12.259 0v-12.754a6.13 6.13 0 1 0-12.259 0v12.754ZM409.227 464.618a6.128 6.128 0 1 0 12.256 0v-11.955a6.128 6.128 0 1 0-12.256 0v11.955ZM429.758 464.617a6.13 6.13 0 1 0 12.259 0v-24.599a6.13 6.13 0 0 0-12.259 0v24.599ZM450.289 464.616a6.13 6.13 0 0 0 12.26 0v-35.41a6.13 6.13 0 0 0-12.26 0v35.41ZM388.773 411.408c0 .8.648 1.448 1.448 1.448h70.864a1.447 1.447 0 0 0 0-2.895h-70.864c-.8 0-1.448.648-1.448 1.447Z" fill="#fff"/><path fill-rule="evenodd" clip-rule="evenodd" d="M192.437 320.22a34.302 34.302 0 0 0-12.552-18.107l-2.432-1.801 2.064 42.909 15.962-12.403-3.042-10.598" fill="#5CE6B8"/><path fill-rule="evenodd" clip-rule="evenodd" d="m243.73 372.086-3.546-6.976a7.05 7.05 0 0 0-4.396-3.604l-10.434-2.903-26.842-17.218-3.034-10.569-15.962 12.404.145 3.014c.29 6.047 3.981 11.399 9.513 13.796l26.063 11.295 12.388.278c3.992 1.38 5.369 4.84 7.846 3.595.923-.463-2.684-6.432-2.684-6.432l5.988 6.637 4.955-3.317" fill="#FFCDB1"/><path fill-rule="evenodd" clip-rule="evenodd" d="m195.317 345.804-.629-.539 3.51-4.148.63.539-3.511 4.148Z" fill="#D28572"/><path fill-rule="evenodd" clip-rule="evenodd" d="m197.047 389.466 19.528-1.731c12.711-1.129 23.769 9.185 24.389 22.746l4.413 96.628-26.938.843-21.392-118.486" fill="#4F38C7"/><path fill-rule="evenodd" clip-rule="evenodd" d="m220.609 506.991.826 26.692h39.919l-19.684-16.457-1.239-12.861-19.822 2.626" fill="#3333D1"/><path fill-rule="evenodd" clip-rule="evenodd" d="m233.773 524.381-1.007-1.314 8.396-6.499 1.008 1.315-8.397 6.498" fill="#fff"/><path fill-rule="evenodd" clip-rule="evenodd" d="m211.523 506.991.826 26.692h39.919l-19.684-16.457-1.239-12.861-19.822 2.626" fill="#D8D8FE"/><path fill-rule="evenodd" clip-rule="evenodd" d="m224.688 524.381-1.008-1.314 8.396-6.499 1.009 1.315-8.397 6.498" fill="#fff"/><path fill-rule="evenodd" clip-rule="evenodd" d="M241.25 509.621h-33.036l-26.842-82.976-47.076-.208c-2.908-.041-5.691-1.393-8.053-3.393-5.005-4.241-7.309-10.901-6.4-17.417l4.129-29.596 69.937 9.133c13.264 1.737 23.976 11.709 26.702 24.863l20.639 99.594" fill="#6751D6"/><path fill-rule="evenodd" clip-rule="evenodd" d="m191.079 426.645-6.409 10.189-3.295-10.189h9.704" fill="#5037B5"/><path fill-rule="evenodd" clip-rule="evenodd" d="M182.437 370.67a273.996 273.996 0 0 1-1.058 4.116l-2.477 10.164s-19.83 11.483-33.951 13.176C135.836 399.219 119.5 401 119.5 401c-6.228-.258-4.492-31.5-2.996-45s3.719-30.966 6.496-40c2.777-9.034 9.957-14.467 18.984-15.404l26.8-2.772 8.672 2.49c8.466 4.563 8.474 12.836 8.879 18.254 1.775 23.714-.413 38.077-3.898 52.102Z" fill="#5CE6B8"/><mask id="a" style="mask-type:alpha" maskUnits="userSpaceOnUse" x="126" y="332" width="54" height="53"><path fill-rule="evenodd" clip-rule="evenodd" d="m178.898 384.949-32.623-1.36c-11.398-8.638-15.667-27.433-19.822-50.982l11.423 12.268-5.253 2.437 7.837 18.651a27.735 27.735 0 0 0 2.453 4.614 24.343 24.343 0 0 0 4.584 5.17c2.816 2.365 6.136 4.125 9.663 5.028 1.762.457 3.581.698 5.416.698h.093l17.103-.11-.874 3.586Z" fill="#fff"/></mask><g mask="url(#a)"><path fill-rule="evenodd" clip-rule="evenodd" d="M126.453 384.949h53.319v-52.342h-53.319v52.342Z" fill="#23AD7F"/></g><path fill-rule="evenodd" clip-rule="evenodd" d="M153.833 313.139c1.43 1.537 3.057 2.88 4.875 3.881 1.812 1.002 3.783 1.734 5.826 1.978 2.02.263 4.153.092 5.927-.878 1.814-.906 2.968-2.819 3.185-4.889l.322.021a6.727 6.727 0 0 1-.821 3.158 6.273 6.273 0 0 1-2.331 2.344c-1.941 1.126-4.245 1.332-6.387 1.057a15.825 15.825 0 0 1-6.07-2.183 17.22 17.22 0 0 1-4.773-4.281l.247-.208M187.061 345.487l-.618-.043c.593-8.349-.008-18.61-1.787-30.496l.613-.093c1.786 11.932 2.389 22.238 1.792 30.632" fill="#0E8F64"/><path fill-rule="evenodd" clip-rule="evenodd" d="M211.797 381.007h30.696v-6.085h-30.696v6.085Z" fill="#3333D1"/><path fill-rule="evenodd" clip-rule="evenodd" d="M295.62 381.006h-61.667l25.554-49.103a10 10 0 0 1 8.871-5.383h39.121c7.505 0 12.335 7.959 8.871 14.616l-20.75 39.87Z" fill="#B3B3FD"/><path fill-rule="evenodd" clip-rule="evenodd" d="M172.702 281.021v22.861c0 .207-.008.406-.025.605-.355 4.705-4.889 8.032-9.522 6.83-6.831-1.777-11.58-7.983-11.522-15.069l.116-15.227h20.953" fill="#FFD8C2"/><path fill-rule="evenodd" clip-rule="evenodd" d="M172.694 290.903v12.977c0 .208-.008.407-.024.606-6.087-1.004-13.124-8.082-14.842-15.791l14.866 2.208" fill="#FFCDB1"/><path fill-rule="evenodd" clip-rule="evenodd" d="M185.011 282.712c-.314 1.817-.735 3.676-1.297 5.443-1.817 5.8-5.079 10.613-10.918 9.775-13.726-1.975-21.366-16.18-21.366-16.18l9.39-10.787 6.302-8.514 18.888 8.198s.099 5.8-.999 12.065" fill="#FFD8C2"/><path fill-rule="evenodd" clip-rule="evenodd" d="m198.498 264.999-6.5-1c1.974-.543 5.5-4.5 5.5-4.5s-5.5 2-9.258-1.384c-2.797-2.836-6.712-5.389-11.184-6.823-6.547-2.097-13.328-1.587-16.558 1.707 0 0-8-2.498-13.501 7.501-3.426 7.694-.002 17-.002 17l.175.786a8.004 8.004 0 0 0 4.231 5.415l.597.298 5-6.499c6.102 1.406 10.913-7.427 11.5-11.001 2.616 1.053 6.761 6.386 14.5 7 .814.149 5 .5 7.5-.5 4-2 6.639-5.188 8-8Z" fill="#453227"/><path fill-rule="evenodd" clip-rule="evenodd" d="M158.058 277.33c1.165 2.924.157 6.079-2.252 7.048-2.409.968-5.305-.617-6.47-3.54-1.165-2.924-.157-6.079 2.252-7.048 2.408-.968 5.305.617 6.47 3.54" fill="#FFD8C2"/><path fill-rule="evenodd" clip-rule="evenodd" d="M153.684 282.218c.103-1.011.11-1.967-.183-2.847-.285-.883-.843-1.652-1.485-2.443l.202-.252c.934.488 1.727 1.363 2.065 2.442.34 1.079.192 2.255-.29 3.193l-.309-.093M176.251 279.158c0 .857-.624 1.552-1.395 1.552-.77 0-1.395-.695-1.395-1.552 0-.856.625-1.551 1.395-1.551.771 0 1.395.695 1.395 1.551M183.579 280.381c-.093.757-.72 1.302-1.401 1.218-.681-.084-1.158-.766-1.065-1.523.093-.757.72-1.302 1.401-1.218.681.084 1.157.766 1.065 1.523M176.187 275.265c.055.725-1.098.794-2.798.845-1.701.051-2.875.579-2.889.121-.013-.459 1.244-1.636 2.921-1.921 1.73-.294 2.699.093 2.766.955M181.606 275.963c-.125.714.724.899 1.98 1.12 1.257.221 2.069.863 2.132.409.063-.453-.735-1.749-1.948-2.2-1.251-.465-2.015-.179-2.164.671M179.596 281.672c.322.396.681.739 1.048 1.091l.557.52c.193.176.401.369.587.661.091.149.165.339.177.553a1.1 1.1 0 0 1-.138.588c-.191.322-.418.508-.666.676-.494.326-1.028.46-1.544.561l-.121-.3c.444-.288.887-.546 1.231-.845.165-.147.327-.327.385-.465.064-.138.045-.185-.031-.346-.183-.303-.652-.705-.957-1.125-.335-.417-.636-.891-.812-1.414l.284-.155M172.6 286.775c.844.968 1.723 1.863 2.78 2.431 1.05.585 2.246.749 3.511.612l.086.313a4.335 4.335 0 0 1-1.997.379 4.552 4.552 0 0 1-1.991-.578c-1.219-.68-2.118-1.779-2.661-2.982l.272-.175" fill="#453227"/><path fill-rule="evenodd" clip-rule="evenodd" d="M167.65 285.897a3.416 3.416 0 0 1-3.408-3.424 3.416 3.416 0 0 1 3.408-3.424 3.416 3.416 0 0 1 3.408 3.424 3.416 3.416 0 0 1-3.408 3.424M183.71 288.158a3.427 3.427 0 0 1 1.297-5.443c-.314 1.817-.735 3.676-1.297 5.443" fill="#FFC8B4"/><path fill-rule="evenodd" clip-rule="evenodd" d="m146.137 323.199-19.684 9.405 6.174 14.702 20.638-9.561-7.128-14.546" fill="#5CE6B8"/><path fill-rule="evenodd" clip-rule="evenodd" d="M219.044 374.19c-.546-.275-.888-.46-.888-.46l.197-.39s.364.176.891.46l-.2.39" fill="#C5C5FF"/><path fill-rule="evenodd" clip-rule="evenodd" d="M227.215 376.234c-.636 1.262-5.509-.97-7.78-2.09 1.759.978 4.79 2.903 3.444 3.957-1.082.839-3.477-.947-11.323-4.215 1.189.565 8.201 3.917 6.434 5.185-1.925 1.378-10.184-1.659-10.184-1.659l-7.16 3.867h-8.259l-29.716.191a21.485 21.485 0 0 1-5.509-.697c-3.526-.903-6.846-2.663-9.663-5.028a24.366 24.366 0 0 1-4.583-5.17 27.7 27.7 0 0 1-2.453-4.614l-7.838-18.651 20.639-9.57 10.77 21.965 35.513 7.749 9.911-2.489c2.131-.539 5.146.367 7.021 1.52 4.575 2.813 11.331 8.545 10.736 9.749" fill="#FFD8C2"/><path fill-rule="evenodd" clip-rule="evenodd" d="M157.161 380.775c-3.527-.903-6.847-2.663-9.663-5.028a24.343 24.343 0 0 1-4.584-5.17 9.032 9.032 0 0 1 5.699-2.015c5.021 0 9.085 4.082 9.085 9.127 0 1.086-.19 2.125-.537 3.086" fill="#FFC8B4"/><path fill-rule="evenodd" clip-rule="evenodd" d="m132.751 347.591-.259-.564 20.366-9.44-8.482-19.944.569-.247 8.719 20.501-20.913 9.694Z" fill="#0E8F64"/><path fill-rule="evenodd" clip-rule="evenodd" d="M134.594 527.89a.54.54 0 0 0 1.08 0v-92.406a.54.54 0 1 0-1.08 0v92.406Z" fill="#3C2694" stroke="#8484F8" stroke-width="8"/><path fill-rule="evenodd" clip-rule="evenodd" d="M161.151 439.09h-52.032c-3.535 0-6.4-2.881-6.4-6.432 0-3.552 2.865-6.429 6.4-6.429h52.032c3.535 0 6.401 2.877 6.401 6.429 0 3.551-2.866 6.432-6.401 6.432M157.015 534.517h-43.773v-1.063c0-5.34 4.309-9.671 9.625-9.671h24.523c5.316 0 9.625 4.331 9.625 9.671v1.063" fill="#D8D8FE"/><path fill-rule="evenodd" clip-rule="evenodd" d="M289.397 534.162 197.458 387.75a.54.54 0 1 1 .916-.575l91.362 145.492a1.086 1.086 0 0 1-.339 1.495" fill="#3C2694"/><path d="M289.397 534.162 197.458 387.75a.54.54 0 1 1 .916-.575l91.362 145.492a1.086 1.086 0 0 1-.339 1.495" stroke="#8484F8" stroke-width="8"/><path fill-rule="evenodd" clip-rule="evenodd" d="M198.086 534.162a1.086 1.086 0 0 1-.339-1.495l91.362-145.492a.542.542 0 0 1 .916.575l-91.939 146.412" fill="#3C2694"/><path d="M198.086 534.162a1.086 1.086 0 0 1-.339-1.495l91.362-145.492a.542.542 0 0 1 .916.575l-91.939 146.412" stroke="#8484F8" stroke-width="8"/><path fill-rule="evenodd" clip-rule="evenodd" d="M162.938 393.25h161.601v-12.244H162.938v12.244Z" fill="#D8D8FE"/><path fill-rule="evenodd" clip-rule="evenodd" d="M72.547 533.97c0 .3.243.543.542.543h441.596a.543.543 0 1 0 0-1.085H73.089c-.3 0-.542.243-.542.542Z" fill="#3C2694" stroke="#8484F8" stroke-width="8"/><rect x="301.766" y="238.594" width="107.469" height="20.552" rx="10.276" fill="#8484F8"/><rect x="301.766" y="271.012" width="184.398" height="19.973" rx="9.987" fill="#D8D8FE"/><rect x="302.625" y="302.855" width="184.398" height="17.368" rx="8.684" fill="#D8D8FE"/><path d="M80.352 170.291c0-11.046 8.954-20 20-20h65.054c11.046 0 20 8.954 20 20v13.701c0 11.046-8.954 20-20 20h-.533l-4.17 7.557a4 4 0 0 1-6.083 1.124l-10.28-8.681h-43.988c-11.046 0-20-8.954-20-20v-13.701Z" fill="#5CE6B8"/><path fill-rule="evenodd" clip-rule="evenodd" d="M111.546 177.78c0 3.53-2.85 6.393-6.367 6.393-3.516 0-6.367-2.863-6.367-6.393 0-3.531 2.851-6.393 6.367-6.393 3.517 0 6.367 2.862 6.367 6.393Zm28.016 0c0 3.53-2.851 6.393-6.367 6.393s-6.367-2.863-6.367-6.393c0-3.531 2.851-6.393 6.367-6.393s6.367 2.862 6.367 6.393Zm21.641 6.393c3.516 0 6.367-2.863 6.367-6.393 0-3.531-2.851-6.393-6.367-6.393s-6.367 2.862-6.367 6.393c0 3.53 2.851 6.393 6.367 6.393Z" fill="#fff"/></svg>
