<svg id="图层_1" data-name="图层 1" xmlns="http://www.w3.org/2000/svg" viewBox="0 0 1024 1024"><defs><style>.cls-1{fill:#2b2b2b;}</style></defs><g id="黑色"><path class="cls-1" d="M843.71,372.1C833.66,348.56,783.4,345,711.44,358.3a14.33,14.33,0,0,1-13.8-5.14A256.94,256.94,0,0,0,652.38,309a6.33,6.33,0,0,0-.56-.47,254.88,254.88,0,0,0-408.2,195.75c-.09,2.54-.13,5.16-.13,7.77a258.23,258.23,0,0,0,3,39.46,14.32,14.32,0,0,1-5.28,13.42c-46.07,36.46-69.75,68.81-60.94,89.44,9,21,50,26.13,110,17.5a15.35,15.35,0,0,1,13.88,5.25q6.65,7.8,14,15.13A254.87,254.87,0,0,0,753.23,512q0-9.56-.7-19A15.39,15.39,0,0,1,759,479.34C820.4,435.75,853.91,396.05,843.71,372.1Zm-126.87,84c-4.74,27.34-33.14,35.63-58.55,31.83-22.26-3.32-44.8-19.44-67.8-1.08-23.73,18.91-16.83,47.66-14,68.55a138.48,138.48,0,0,1,1.24,24.8c-.82,18-6.23,35.53-16.92,50.12-55.15,75.27-220.09,56.91-249.51-40.28-4.34-14.31-5-35.05,6.07-52.43,3.6-5.67-1.74-12.78-8.25-11.13-35.34,9-56.72,5.25-56.81-22,3.64-130.94,112.62-238.69,246.07-238.69,55.64,0,111.2,16.45,148.21,49.6,0,0,0,0,0,0C671,338,654.37,374.83,598.22,405c29.6-7.34,55.2-8.77,73.1-6.1C700.64,403.21,722.22,424.82,716.84,456.14Z"/><circle class="cls-1" cx="548.76" cy="412.86" r="20.72" transform="translate(-59.05 93.23) rotate(-9.22)"/><circle class="cls-1" cx="397.32" cy="496.2" r="20.72" transform="translate(-74.35 70.05) rotate(-9.22)"/></g></svg>