<svg width="480" height="403" viewBox="0 0 480 403" fill="none" xmlns="http://www.w3.org/2000/svg">
<path opacity="0.2" fill-rule="evenodd" clip-rule="evenodd" d="M115.993 137.678C63.4659 121.589 -33.8554 170.196 11.8951 229.449C39.1303 264.722 31.3144 302.252 24.9194 332.959C16.0377 375.607 9.89713 405.092 104.211 397.088V396.633H109.677C123.429 395.596 135.371 395.665 145.797 396.633H456.617C500.484 335.28 478.762 266.193 423.579 238.381C387.467 220.181 404.257 188.352 423.007 152.809C446.736 107.825 473.604 56.8914 400.336 20.1072C334.581 -12.9049 217.887 -11.6472 151.352 72.7402C133.895 94.8812 126.506 117.127 122.369 129.583C119.413 138.483 118.117 142.386 115.993 137.678Z" fill="#3CC798"/>
<rect x="236.375" y="34.4727" width="217.024" height="177.004" rx="19" fill="white" stroke="#6E6EF7" stroke-width="2"/>
<path fill-rule="evenodd" clip-rule="evenodd" d="M270.005 61.8761C270.005 66.9468 265.914 71.0572 260.866 71.0572C255.818 71.0572 251.727 66.9468 251.727 61.8761C251.727 56.8058 255.818 52.6953 260.866 52.6953C265.914 52.6953 270.005 56.8058 270.005 61.8761Z" fill="#D8D8FE"/>
<path fill-rule="evenodd" clip-rule="evenodd" d="M296.919 61.8761C296.919 66.9468 292.828 71.0572 287.78 71.0572C282.732 71.0572 278.641 66.9468 278.641 61.8761C278.641 56.8058 282.732 52.6953 287.78 52.6953C292.828 52.6953 296.919 56.8058 296.919 61.8761Z" fill="white"/>
<path d="M296.919 61.8761C296.919 66.9468 292.828 71.0572 287.78 71.0572C282.732 71.0572 278.641 66.9468 278.641 61.8761C278.641 56.8058 282.732 52.6953 287.78 52.6953C292.828 52.6953 296.919 56.8058 296.919 61.8761" stroke="#8484F8" stroke-width="2"/>
<path fill-rule="evenodd" clip-rule="evenodd" d="M357.343 70.6398H320.956C316.138 70.6398 312.234 66.7163 312.234 61.8764C312.234 57.0368 316.138 53.1133 320.956 53.1133H357.343C362.16 53.1133 366.064 57.0368 366.064 61.8764C366.064 66.7163 362.16 70.6398 357.343 70.6398Z" fill="white"/>
<path d="M357.343 70.6398H320.956C316.138 70.6398 312.234 66.7163 312.234 61.8764C312.234 57.0368 316.138 53.1133 320.956 53.1133H357.343C362.16 53.1133 366.064 57.0368 366.064 61.8764C366.064 66.7163 362.16 70.6398 357.343 70.6398" stroke="#8484F8" stroke-width="2"/>
<path fill-rule="evenodd" clip-rule="evenodd" d="M345.055 277.45H349.377V276.727H345.055V277.45ZM353.703 277.45H358.026V276.727H353.703V277.45ZM362.344 277.45H366.666V276.727H362.344V277.45ZM370.992 277.45H375.315V276.727H370.992V277.45ZM379.633 277.45H383.955V276.727H379.633V277.45ZM388.266 277.45H392.588V276.727H388.266V277.45ZM396.922 277.45H401.244V276.727H396.922V277.45ZM405.562 277.45H409.885V276.727H405.562V277.45ZM414.219 277.45H418.541V276.727H414.219V277.45ZM422.852 277.45H427.174V276.727H422.852V277.45ZM435.415 278.884C434.161 278.241 432.822 277.807 431.43 277.596L431.536 276.881C433.006 277.104 434.421 277.561 435.743 278.238L435.415 278.884ZM336.861 279.058L336.516 278.425C337.821 277.707 339.221 277.209 340.682 276.945L340.812 277.657C339.426 277.906 338.098 278.378 336.861 279.058ZM441.215 284.808C440.596 283.543 439.78 282.388 438.789 281.378L439.305 280.871C440.348 281.936 441.21 283.152 441.864 284.489L441.215 284.808ZM331.243 285.144L330.586 284.843C331.203 283.488 332.03 282.247 333.044 281.152L333.571 281.647C332.609 282.684 331.825 283.859 331.243 285.144ZM443.284 293.12H442.563V290.61C442.563 290.017 442.523 289.418 442.445 288.83L443.157 288.734C443.241 289.351 443.284 289.982 443.284 290.61V293.12ZM330.056 293.5H329.336V290.608C329.336 290.116 329.362 289.615 329.414 289.123L330.131 289.201C330.082 289.667 330.056 290.142 330.056 290.608V293.5ZM442.555 301.801H443.275V297.459H442.555V301.801ZM329.336 302.184H330.056V297.842H329.336V302.184ZM442.555 310.485H443.275V306.143H442.555V310.485ZM329.336 310.867H330.056V306.525H329.336V310.867ZM442.555 319.168H443.275V314.826H442.555V319.168ZM329.336 319.551H330.056V315.209H329.336V319.551ZM442.555 327.852H443.275V323.51H442.555V327.852ZM329.336 328.235H330.056V323.893H329.336V328.235ZM442.555 336.537H443.275V332.195H442.555V336.537ZM329.336 336.918H330.056V332.576H329.336V336.918ZM442.861 345.271L442.164 345.095C442.429 344.041 442.565 342.95 442.565 341.852V340.877H443.285V341.852C443.285 343.01 443.144 344.16 442.861 345.271ZM329.86 345.656C329.512 344.426 329.336 343.146 329.336 341.855V341.262H330.056V341.855C330.056 343.08 330.223 344.292 330.552 345.456L329.86 345.656ZM438.156 352.648L437.703 352.086C438.798 351.195 439.74 350.141 440.498 348.951L441.106 349.345C440.305 350.598 439.311 351.71 438.156 352.648ZM334.774 352.893C333.593 351.987 332.57 350.904 331.734 349.674L332.328 349.266C333.12 350.432 334.092 351.46 335.21 352.32L334.774 352.893ZM429.987 355.726L429.961 355.003C431.373 354.951 432.756 354.673 434.067 354.178L434.321 354.855C432.935 355.376 431.48 355.669 429.987 355.726ZM343.026 355.735C341.533 355.72 340.069 355.468 338.672 354.988L338.905 354.305C340.228 354.759 341.617 354.997 343.032 355.011L343.026 355.735ZM347.344 355.733H351.666V355.01H347.344V355.733ZM355.992 355.733H360.315V355.01H355.992V355.733ZM364.641 355.733H368.963V355.01H364.641V355.733ZM373.289 355.733H377.612V355.01H373.289V355.733ZM381.93 355.733H386.252V355.01H381.93V355.733ZM390.57 355.733H394.893V355.01H390.57V355.733ZM399.211 355.733H403.533V355.01H399.211V355.733ZM407.859 355.733H412.182V355.01H407.859V355.733ZM416.492 355.733H420.815V355.01H416.492V355.733ZM425.148 355.733H429.471V355.01H425.148V355.733Z" fill="#72D99F"/>
<path fill-rule="evenodd" clip-rule="evenodd" d="M421.596 343.189H329.642C323.77 343.189 319.008 338.404 319.008 332.501V273.432C319.008 267.53 323.77 262.748 329.642 262.748H421.596C427.471 262.748 432.231 267.53 432.231 273.432V332.501C432.231 338.404 427.471 343.189 421.596 343.189Z" fill="#8484F8"/>
<path fill-rule="evenodd" clip-rule="evenodd" d="M338.688 328.62C338.688 332.005 341.432 334.749 344.817 334.749C348.203 334.749 350.947 332.005 350.947 328.62V315.866C350.947 312.481 348.203 309.736 344.817 309.736C341.432 309.736 338.688 312.481 338.688 315.866V328.62Z" fill="white"/>
<path fill-rule="evenodd" clip-rule="evenodd" d="M359.227 328.618C359.227 332.003 361.97 334.746 365.355 334.746C368.739 334.746 371.483 332.003 371.483 328.618V316.663C371.483 313.279 368.739 310.535 365.355 310.535C361.97 310.535 359.227 313.279 359.227 316.663V328.618Z" fill="white"/>
<path fill-rule="evenodd" clip-rule="evenodd" d="M379.758 328.617C379.758 332.002 382.502 334.747 385.888 334.747C389.273 334.747 392.017 332.002 392.017 328.617V304.018C392.017 300.633 389.273 297.889 385.888 297.889C382.502 297.889 379.758 300.633 379.758 304.018V328.617Z" fill="white"/>
<path fill-rule="evenodd" clip-rule="evenodd" d="M400.289 328.616C400.289 332.002 403.033 334.746 406.419 334.746C409.804 334.746 412.549 332.002 412.549 328.616V293.206C412.549 289.821 409.804 287.076 406.419 287.076C403.033 287.076 400.289 289.821 400.289 293.206V328.616Z" fill="white"/>
<path fill-rule="evenodd" clip-rule="evenodd" d="M338.773 275.408C338.773 276.208 339.421 276.856 340.221 276.856H411.085C411.884 276.856 412.532 276.208 412.532 275.408C412.532 274.609 411.884 273.961 411.085 273.961H340.221C339.421 273.961 338.773 274.609 338.773 275.408Z" fill="white"/>
<path fill-rule="evenodd" clip-rule="evenodd" d="M142.437 184.22C140.352 176.96 135.94 170.595 129.885 166.113L127.453 164.312L129.517 207.221L145.479 194.818L142.437 184.22Z" fill="#5CE6B8"/>
<path fill-rule="evenodd" clip-rule="evenodd" d="M193.73 236.086L190.184 229.11C189.286 227.341 187.691 226.036 185.788 225.506L175.354 222.603L148.512 205.385L145.478 194.816L129.516 207.22L129.661 210.234C129.951 216.281 133.642 221.633 139.174 224.03L165.237 235.325L177.625 235.603C181.617 236.983 182.994 240.443 185.471 239.198C186.394 238.735 182.787 232.766 182.787 232.766L188.775 239.403L193.73 236.086Z" fill="#FFCDB1"/>
<path fill-rule="evenodd" clip-rule="evenodd" d="M145.317 209.804L144.688 209.265L148.198 205.117L148.828 205.656L145.317 209.804Z" fill="#D28572"/>
<path fill-rule="evenodd" clip-rule="evenodd" d="M147.047 253.466L166.575 251.735C179.286 250.606 190.344 260.92 190.964 274.481L195.377 371.109L168.439 371.952L147.047 253.466Z" fill="#4F38C7"/>
<path fill-rule="evenodd" clip-rule="evenodd" d="M170.609 370.991L171.435 397.683H211.354L191.67 381.226L190.431 368.365L170.609 370.991Z" fill="#3333D1"/>
<path fill-rule="evenodd" clip-rule="evenodd" d="M183.773 388.381L182.766 387.067L191.162 380.568L192.17 381.883L183.773 388.381Z" fill="white"/>
<path fill-rule="evenodd" clip-rule="evenodd" d="M161.523 370.991L162.349 397.683H202.268L182.584 381.226L181.345 368.365L161.523 370.991Z" fill="#D8D8FE"/>
<path fill-rule="evenodd" clip-rule="evenodd" d="M174.688 388.381L173.68 387.067L182.076 380.568L183.085 381.883L174.688 388.381Z" fill="white"/>
<path fill-rule="evenodd" clip-rule="evenodd" d="M191.25 373.621H158.214L131.372 290.645L84.2959 290.437C81.3885 290.396 78.6052 289.044 76.2432 287.044C71.2382 282.803 68.9341 276.143 69.8426 269.627L73.9722 240.031L143.909 249.164C157.173 250.901 167.885 260.873 170.611 274.027L191.25 373.621Z" fill="#6751D6"/>
<path fill-rule="evenodd" clip-rule="evenodd" d="M141.079 290.645L134.67 300.834L131.375 290.645H141.079Z" fill="#5037B5"/>
<path fill-rule="evenodd" clip-rule="evenodd" d="M132.437 234.67C132.098 236.039 131.743 237.408 131.379 238.786L128.902 248.95C128.902 248.95 109.072 260.433 94.9515 262.126C85.836 263.219 69.4999 265 69.4999 265C63.2724 264.742 65.008 233.5 66.5039 220C67.9998 206.5 70.2227 189.034 72.9998 180C75.7769 170.966 82.9568 165.533 91.9839 164.596L118.784 161.824L127.456 164.314C135.922 168.877 135.93 177.15 136.335 182.568C138.11 206.282 135.922 220.645 132.437 234.67Z" fill="#5CE6B8"/>
<mask id="mask0_643_12441" style="mask-type:alpha" maskUnits="userSpaceOnUse" x="76" y="196" width="54" height="53">
<path fill-rule="evenodd" clip-rule="evenodd" d="M128.898 248.949L96.2747 247.589C84.8772 238.951 80.6075 220.156 76.4531 196.607L87.876 208.875L82.6227 211.312L90.4604 229.963C91.1375 231.581 91.9552 233.133 92.9132 234.577C94.1933 236.502 95.7212 238.253 97.4969 239.747C100.313 242.112 103.633 243.872 107.16 244.775C108.922 245.232 110.741 245.473 112.576 245.473C112.607 245.473 112.638 245.473 112.669 245.473L129.772 245.363L128.898 248.949Z" fill="white"/>
</mask>
<g mask="url(#mask0_643_12441)">
<path fill-rule="evenodd" clip-rule="evenodd" d="M76.4531 248.949H129.772V196.607H76.4531V248.949Z" fill="#23AD7F"/>
</g>
<path fill-rule="evenodd" clip-rule="evenodd" d="M103.833 177.139C105.263 178.676 106.89 180.019 108.708 181.02C110.52 182.022 112.491 182.754 114.534 182.998C116.554 183.261 118.687 183.09 120.461 182.12C122.275 181.214 123.429 179.301 123.646 177.231L123.968 177.252C123.956 178.337 123.684 179.434 123.147 180.41C122.605 181.385 121.777 182.196 120.816 182.754C118.875 183.88 116.571 184.086 114.429 183.811C112.274 183.513 110.199 182.754 108.359 181.628C106.507 180.517 104.888 179.043 103.586 177.347L103.833 177.139Z" fill="#0E8F64"/>
<path fill-rule="evenodd" clip-rule="evenodd" d="M137.061 209.487L136.443 209.444C137.036 201.095 136.435 190.834 134.656 178.948L135.269 178.855C137.055 190.787 137.658 201.093 137.061 209.487Z" fill="#0E8F64"/>
<path fill-rule="evenodd" clip-rule="evenodd" d="M161.797 245.007H192.493V238.922H161.797V245.007Z" fill="#3333D1"/>
<path fill-rule="evenodd" clip-rule="evenodd" d="M245.62 245.006H183.953L209.507 195.903C211.229 192.595 214.648 190.52 218.378 190.52H257.499C265.004 190.52 269.834 198.479 266.37 205.136L245.62 245.006Z" fill="#B3B3FD"/>
<path fill-rule="evenodd" clip-rule="evenodd" d="M122.702 145.021V167.882C122.702 168.089 122.694 168.288 122.677 168.487C122.322 173.192 117.788 176.519 113.155 175.317C106.324 173.54 101.575 167.334 101.633 160.248L101.749 145.021H122.702Z" fill="#FFD8C2"/>
<path fill-rule="evenodd" clip-rule="evenodd" d="M122.694 154.903V167.88C122.694 168.088 122.686 168.287 122.67 168.486C116.583 167.482 109.546 160.404 107.828 152.695L122.694 154.903Z" fill="#FFCDB1"/>
<path fill-rule="evenodd" clip-rule="evenodd" d="M135.011 146.712C134.697 148.529 134.276 150.388 133.714 152.155C131.897 157.955 128.635 162.768 122.796 161.93C109.07 159.955 101.43 145.75 101.43 145.75L110.82 134.963L117.122 126.449L136.01 134.647C136.01 134.647 136.109 140.447 135.011 146.712Z" fill="#FFD8C2"/>
<path fill-rule="evenodd" clip-rule="evenodd" d="M148.498 128.999L141.998 127.999C143.972 127.456 147.498 123.499 147.498 123.499C147.498 123.499 141.998 125.499 138.24 122.115C135.443 119.279 131.528 116.726 127.056 115.292C120.509 113.195 113.728 113.705 110.498 116.999C110.498 116.999 102.498 114.501 96.9967 124.5C93.5715 132.194 96.995 141.5 96.995 141.5L97.1701 142.286C97.6938 144.635 99.2477 146.624 101.401 147.701L101.998 147.999L106.998 141.5C113.1 142.906 117.911 134.073 118.498 130.499C121.114 131.552 125.259 136.885 132.998 137.499C133.812 137.648 137.998 137.999 140.498 136.999C144.498 134.999 147.137 131.811 148.498 128.999Z" fill="#453227"/>
<path fill-rule="evenodd" clip-rule="evenodd" d="M108.058 141.33C109.223 144.254 108.215 147.409 105.806 148.378C103.397 149.346 100.501 147.761 99.3358 144.838C98.1712 141.914 99.1793 138.759 101.588 137.79C103.996 136.822 106.893 138.407 108.058 141.33Z" fill="#FFD8C2"/>
<path fill-rule="evenodd" clip-rule="evenodd" d="M103.684 146.218C103.787 145.207 103.794 144.251 103.501 143.371C103.216 142.488 102.658 141.719 102.016 140.928L102.218 140.676C103.152 141.164 103.945 142.039 104.283 143.118C104.623 144.197 104.475 145.373 103.993 146.311L103.684 146.218Z" fill="#453227"/>
<path fill-rule="evenodd" clip-rule="evenodd" d="M126.251 143.158C126.251 144.015 125.627 144.71 124.856 144.71C124.086 144.71 123.461 144.015 123.461 143.158C123.461 142.302 124.086 141.607 124.856 141.607C125.627 141.607 126.251 142.302 126.251 143.158Z" fill="#453227"/>
<path fill-rule="evenodd" clip-rule="evenodd" d="M133.579 144.381C133.486 145.138 132.859 145.683 132.178 145.599C131.497 145.515 131.02 144.833 131.113 144.076C131.206 143.319 131.833 142.774 132.514 142.858C133.195 142.942 133.671 143.624 133.579 144.381Z" fill="#453227"/>
<path fill-rule="evenodd" clip-rule="evenodd" d="M126.187 139.265C126.242 139.99 125.089 140.059 123.389 140.11C121.688 140.161 120.514 140.689 120.5 140.231C120.487 139.772 121.744 138.595 123.421 138.31C125.151 138.016 126.12 138.403 126.187 139.265Z" fill="#453227"/>
<path fill-rule="evenodd" clip-rule="evenodd" d="M131.606 139.963C131.481 140.677 132.33 140.862 133.586 141.083C134.843 141.304 135.655 141.946 135.718 141.492C135.781 141.039 134.983 139.743 133.77 139.292C132.519 138.827 131.755 139.113 131.606 139.963Z" fill="#453227"/>
<path fill-rule="evenodd" clip-rule="evenodd" d="M129.596 145.672C129.918 146.068 130.277 146.411 130.644 146.763L131.201 147.283C131.394 147.459 131.602 147.652 131.788 147.944C131.879 148.093 131.953 148.283 131.965 148.497C131.981 148.713 131.914 148.923 131.827 149.085C131.636 149.407 131.409 149.593 131.161 149.761C130.667 150.087 130.133 150.221 129.617 150.322L129.496 150.022C129.94 149.734 130.383 149.476 130.727 149.177C130.892 149.03 131.054 148.85 131.112 148.712C131.176 148.574 131.157 148.527 131.081 148.366C130.898 148.063 130.429 147.661 130.124 147.241C129.789 146.824 129.488 146.35 129.312 145.827L129.596 145.672Z" fill="#453227"/>
<path fill-rule="evenodd" clip-rule="evenodd" d="M122.6 150.775C123.444 151.743 124.323 152.638 125.38 153.206C126.43 153.791 127.626 153.955 128.891 153.818L128.977 154.131C128.365 154.403 127.676 154.55 126.98 154.51C126.284 154.479 125.595 154.269 124.989 153.932C123.77 153.252 122.871 152.153 122.328 150.95L122.6 150.775Z" fill="#453227"/>
<path fill-rule="evenodd" clip-rule="evenodd" d="M117.65 149.897C115.768 149.897 114.242 148.364 114.242 146.473C114.242 144.582 115.768 143.049 117.65 143.049C119.533 143.049 121.058 144.582 121.058 146.473C121.058 148.364 119.533 149.897 117.65 149.897Z" fill="#FFC8B4"/>
<path fill-rule="evenodd" clip-rule="evenodd" d="M133.71 152.158C133.181 151.552 132.859 150.764 132.859 149.893C132.859 148.449 133.752 147.221 135.007 146.715C134.693 148.532 134.272 150.391 133.71 152.158Z" fill="#FFC8B4"/>
<path fill-rule="evenodd" clip-rule="evenodd" d="M96.137 187.199L76.4531 196.604L82.6267 211.306L103.265 201.745L96.137 187.199Z" fill="#5CE6B8"/>
<path fill-rule="evenodd" clip-rule="evenodd" d="M169.044 238.19C168.498 237.915 168.156 237.73 168.156 237.73L168.353 237.34C168.353 237.34 168.717 237.516 169.244 237.8L169.044 238.19Z" fill="#C5C5FF"/>
<path fill-rule="evenodd" clip-rule="evenodd" d="M177.215 240.234C176.579 241.496 171.706 239.264 169.435 238.144C171.194 239.122 174.225 241.047 172.879 242.101C171.797 242.94 169.402 241.154 161.556 237.886C162.745 238.451 169.757 241.803 167.99 243.071C166.065 244.449 157.806 241.412 157.806 241.412L150.646 245.279H142.387L112.671 245.47C110.805 245.479 108.955 245.239 107.162 244.773C103.636 243.87 100.316 242.11 97.4993 239.745C95.7236 238.251 94.1957 236.5 92.9155 234.575C91.9575 233.13 91.1398 231.579 90.4628 229.961L82.625 211.31L103.264 201.74L114.034 223.705L149.547 231.454L159.458 228.965C161.589 228.426 164.604 229.332 166.479 230.485C171.054 233.298 177.81 239.03 177.215 240.234Z" fill="#FFD8C2"/>
<path fill-rule="evenodd" clip-rule="evenodd" d="M107.161 244.775C103.634 243.872 100.314 242.112 97.4978 239.747C95.7221 238.253 94.1942 236.502 92.9141 234.577C94.4751 233.315 96.4571 232.562 98.6131 232.562C103.634 232.562 107.698 236.644 107.698 241.689C107.698 242.775 107.508 243.814 107.161 244.775Z" fill="#FFC8B4"/>
<path fill-rule="evenodd" clip-rule="evenodd" d="M82.7515 211.591L82.4922 211.027L102.858 201.587L94.3757 181.643L94.9454 181.396L103.664 201.897L82.7515 211.591Z" fill="#0E8F64"/>
<path fill-rule="evenodd" clip-rule="evenodd" d="M84.5938 391.89C84.5938 392.188 84.8357 392.43 85.1341 392.43C85.4325 392.43 85.6744 392.188 85.6744 391.89V299.484C85.6744 299.185 85.4325 298.943 85.1341 298.943C84.8357 298.943 84.5938 299.185 84.5938 299.484V391.89Z" fill="#3C2694" stroke="#8484F8" stroke-width="8"/>
<path fill-rule="evenodd" clip-rule="evenodd" d="M111.151 303.09H59.1194C55.5844 303.09 52.7188 300.209 52.7188 296.658C52.7188 293.106 55.5844 290.229 59.1194 290.229H111.151C114.686 290.229 117.552 293.106 117.552 296.658C117.552 300.209 114.686 303.09 111.151 303.09Z" fill="#D8D8FE"/>
<path fill-rule="evenodd" clip-rule="evenodd" d="M107.015 398.517H63.2422V397.454C63.2422 392.114 67.551 387.783 72.8669 387.783H97.3903C102.706 387.783 107.015 392.114 107.015 397.454V398.517Z" fill="#D8D8FE"/>
<path fill-rule="evenodd" clip-rule="evenodd" d="M239.397 398.162L147.458 251.75C147.3 251.498 147.375 251.165 147.627 251.005C147.88 250.845 148.215 250.921 148.374 251.175L239.736 396.667C240.054 397.173 239.903 397.842 239.397 398.162Z" fill="#3C2694"/>
<path d="M239.397 398.162L147.458 251.75C147.3 251.498 147.375 251.165 147.627 251.005V251.005C147.88 250.845 148.215 250.921 148.374 251.175L239.736 396.667C240.054 397.173 239.903 397.842 239.397 398.162V398.162" stroke="#8484F8" stroke-width="8"/>
<path fill-rule="evenodd" clip-rule="evenodd" d="M148.086 398.162C147.58 397.842 147.429 397.173 147.747 396.667L239.109 251.175C239.268 250.921 239.603 250.845 239.856 251.005C240.108 251.165 240.183 251.498 240.025 251.75L148.086 398.162Z" fill="#3C2694"/>
<path d="M148.086 398.162V398.162C147.58 397.842 147.429 397.173 147.747 396.667L239.109 251.175C239.268 250.921 239.603 250.845 239.856 251.005V251.005C240.108 251.165 240.183 251.498 240.025 251.75L148.086 398.162" stroke="#8484F8" stroke-width="8"/>
<path fill-rule="evenodd" clip-rule="evenodd" d="M112.938 257.25H274.539V245.006H112.938V257.25Z" fill="#D8D8FE"/>
<path fill-rule="evenodd" clip-rule="evenodd" d="M22.5469 397.97C22.5469 398.27 22.7897 398.513 23.0893 398.513H464.685C464.985 398.513 465.228 398.27 465.228 397.97C465.228 397.671 464.985 397.428 464.685 397.428H23.0893C22.7897 397.428 22.5469 397.671 22.5469 397.97Z" fill="#3C2694" stroke="#8484F8" stroke-width="8"/>
<rect x="251.766" y="102.594" width="107.469" height="20.5523" rx="10.2762" fill="#8484F8"/>
<rect x="251.766" y="135.012" width="184.398" height="19.9734" rx="9.98669" fill="#D8D8FE"/>
<rect x="252.625" y="166.855" width="184.398" height="17.3682" rx="8.68408" fill="#D8D8FE"/>
<path d="M30.3516 34.291C30.3516 23.2453 39.3059 14.291 50.3516 14.291H115.406C126.452 14.291 135.406 23.2453 135.406 34.291V47.9923C135.406 59.038 126.452 67.9923 115.406 67.9923H114.873L110.703 75.5492C109.484 77.7586 106.549 78.3009 104.62 76.6729L94.3396 67.9923H50.3516C39.3059 67.9923 30.3516 59.038 30.3516 47.9923V34.291Z" fill="#5CE6B8"/>
<path fill-rule="evenodd" clip-rule="evenodd" d="M61.5464 41.7797C61.5464 45.3105 58.6958 48.1727 55.1795 48.1727C51.6631 48.1727 48.8125 45.3105 48.8125 41.7797C48.8125 38.249 51.6631 35.3867 55.1795 35.3867C58.6958 35.3867 61.5464 38.249 61.5464 41.7797ZM89.5621 41.7797C89.5621 45.3105 86.7115 48.1727 83.1951 48.1727C79.6787 48.1727 76.8281 45.3105 76.8281 41.7797C76.8281 38.249 79.6787 35.3867 83.1951 35.3867C86.7115 35.3867 89.5621 38.249 89.5621 41.7797ZM111.203 48.1727C114.719 48.1727 117.57 45.3105 117.57 41.7797C117.57 38.249 114.719 35.3867 111.203 35.3867C107.687 35.3867 104.836 38.249 104.836 41.7797C104.836 45.3105 107.687 48.1727 111.203 48.1727Z" fill="white"/>
</svg>
