<svg width="20" height="20" fill="none" xmlns="http://www.w3.org/2000/svg">
  <path fill-rule="evenodd" clip-rule="evenodd" d="M.667 10a9.333 9.333 0 1 1 18.667 0A9.333 9.333 0 0 1 .667 10ZM10 2.667a7.333 7.333 0 1 0 0 14.667 7.333 7.333 0 0 0 0-14.667Z" fill="currentColor"/>
  <path fill-rule="evenodd" clip-rule="evenodd" d="M6.917 7.5a3.083 3.083 0 1 1 6.167 0 3.083 3.083 0 0 1-6.167 0ZM10 6.417a1.083 1.083 0 1 0 0 2.167 1.083 1.083 0 0 0 0-2.167Zm-1.666 6.666a3.167 3.167 0 0 0-3.16 2.954 1 1 0 0 1-1.996-.131 5.167 5.167 0 0 1 5.156-4.823h3.333a5.167 5.167 0 0 1 5.155 4.812 1 1 0 1 1-1.996.136 3.167 3.167 0 0 0-3.16-2.948H8.335Z" fill="currentColor"/>
</svg>
