<svg fill="none" xmlns="http://www.w3.org/2000/svg" viewBox="0 0 20 20">
  <path fill-rule="evenodd" clip-rule="evenodd" d="M2.118 2.291a.8.8 0 0 1 .8-.8h14.167a.8.8 0 0 1 .8.8v11.667a.8.8 0 0 1-.8.8H2.918a.8.8 0 0 1-.8-.8V2.29Zm1.6.8v10.067h12.567V3.09H3.718Z" fill="currentColor"/>
  <path fill-rule="evenodd" clip-rule="evenodd" d="M9.436 13.391a.8.8 0 0 1 1.131 0l3.333 3.334a.8.8 0 0 1-1.131 1.131L10 15.088l-2.767 2.768a.8.8 0 0 1-1.132-1.131l3.334-3.334ZM5.229 10.834a.8.8 0 0 1 .014-1.131l2.35-2.295a.8.8 0 0 1 1.119 0l1.285 1.257 3.59-3.597a.8.8 0 1 1 1.132 1.13l-4.15 4.158a.8.8 0 0 1-1.125.007L8.152 9.099 6.36 10.848a.8.8 0 0 1-1.131-.014ZM.868 2.291a.8.8 0 0 1 .8-.8h16.667a.8.8 0 0 1 0 1.6H1.668a.8.8 0 0 1-.8-.8Z" fill="currentColor"/>
</svg>
