<svg class="icon" viewBox="0 0 1024 1024" xmlns="http://www.w3.org/2000/svg" width="200" height="200"><path d="M149.333 64A85.038 85.038 0 0 0 64 149.333v469.334A85.038 85.038 0 0 0 149.333 704h85.334v-85.333h-85.334V149.333h469.334v85.334H704v-85.334A85.038 85.038 0 0 0 618.667 64H149.333m256 256A85.038 85.038 0 0 0 320 405.333v85.334h85.333v-85.334h85.334V320h-85.334M576 320v85.333h42.667V448H704V320H576m213.333 0v85.333h85.334v469.334H405.333v-85.334H320v85.334A85.038 85.038 0 0 0 405.333 960h469.334A85.038 85.038 0 0 0 960 874.667V405.333A85.038 85.038 0 0 0 874.667 320h-85.334M618.667 533.333v85.334h-85.334V704h85.334A85.038 85.038 0 0 0 704 618.667v-85.334h-85.333M320 576v128h128v-85.333h-42.667V576z"/></svg>
