<svg fill="none" xmlns="http://www.w3.org/2000/svg" viewBox="0 0 20 20">
  <path fill-rule="evenodd" clip-rule="evenodd" d="M4.466 5.967a3.366 3.366 0 1 1 6.732 0 3.366 3.366 0 0 1-6.732 0Zm3.366-1.766a1.766 1.766 0 1 0 0 3.533 1.766 1.766 0 0 0 0-3.533ZM12.139 3.355a.8.8 0 0 1 1.098-.273 3.365 3.365 0 0 1 0 5.77.8.8 0 0 1-.826-1.37 1.765 1.765 0 0 0 0-3.03.8.8 0 0 1-.272-1.097ZM6.99 10.667h1.681c.793 0 1.436 0 1.958.042.538.044 1.017.138 1.462.365a3.733 3.733 0 0 1 1.632 1.63c.226.446.32.925.364 1.464.043.522.043 1.165.043 1.957v.474a.8.8 0 0 1-.8.8H2.332a.8.8 0 0 1-.8-.8v-.474c0-.792 0-1.435.043-1.957.044-.539.137-1.018.364-1.463a3.733 3.733 0 0 1 1.631-1.631c.445-.227.925-.32 1.463-.365.522-.042 1.165-.042 1.957-.042Zm-2.694 1.832c-.4.205-.727.531-.932.932-.092.182-.159.428-.195.867-.03.381-.036.855-.037 1.5h9.397c0-.645-.006-1.119-.037-1.5-.036-.44-.102-.685-.195-.867a2.133 2.133 0 0 0-.932-.932m-7.069 0c.183-.093.428-.159.867-.195.45-.037 1.027-.037 1.861-.037h1.613c.835 0 1.412 0 1.861.037.44.036.685.102.867.195M14.682 11.422c.132-.421.682-.55 1.076-.35a3.733 3.733 0 0 1 1.631 1.632c.227.445.32.924.364 1.462.043.522.043 1.165.043 1.958v.474a.8.8 0 0 1-1.6 0v-.44c0-.835 0-1.412-.038-1.861-.031-.386-.082-.622-.158-.797 0 0-.555-.672-1-1" fill="currentColor"/>
</svg>
