<svg xmlns="http://www.w3.org/2000/svg" viewBox="0 0 1000 1000" xml:space="preserve">
  <path d="M982.9 901.9 861.4 780.4c28.3-47.9 46.5-87.8 46.5-143.2 0-132.5-107.4-239.9-239.9-239.9S428.1 504.7 428.1 637.2 536.1 890 668 877.1c53.9-5.3 102.6-14.9 143.2-46.5l121.5 121.6c11.7 11.7 34.6 7.8 46.3-3.9 11.7-11.8 15.6-34.7 3.9-46.4zM498.3 637.2c0-93.7 76-169.7 169.7-169.7 93.7 0 169.7 76 169.7 169.7s-76 169.7-169.7 169.7c-93.7 0-169.7-76-169.7-169.7z"/>
  <path d="M756 121.5c0-44.6-36.2-80.8-80.8-80.8H90.8C46.1 40.8 10 76.9 10 121.5v757c0 44.6 36.2 80.8 80.8 80.8h58.9l.5-.6c2.1.4 4.3.6 6.6.6h290.3c19.5 0 35.3-15.8 35.3-35.3 0-19.5-15.8-35.3-35.3-35.3H121c-22.3 0-40.4-18.1-40.4-40.4V151.8c0-22.3 18.1-40.4 40.4-40.4h524c22.3 0 40.4 18.1 40.4 40.4v143c0 19.5 15.8 35.3 35.3 35.3s35.3-15.8 35.3-35.3V121.5z"/>
  <path d="M146.3 259.5c0 19.5 15.8 35.3 35.3 35.3h404c19.5 0 35.3-15.8 35.3-35.3 0-19.5-15.8-35.3-35.3-35.3h-404c-19.4-.1-35.3 15.8-35.3 35.3zm0 214.5c0 19.5 15.8 35.3 35.3 35.3h197.1c19.5 0 35.3-15.8 35.3-35.3 0-19.5-15.8-35.3-35.3-35.3h-197c-19.5 0-35.4 15.8-35.4 35.3zm0 208.4c0 19.5 15.8 35.3 35.3 35.3h128.1c19.5 0 35.3-15.8 35.3-35.3 0-19.5-15.8-35.3-35.3-35.3h-128c-19.5 0-35.4 15.8-35.4 35.3z"/>
</svg>
