
1.23k → 429 bytes 34.16%
<svg width="95" height="95" fill="none" xmlns="http://www.w3.org/2000/svg"><path d="M86.922 65.702c2.045.944 4.487.056 5.252-2.063a47.5 47.5 0 1 0-17.5 22.82c1.847-1.288 2.072-3.876.629-5.607-1.442-1.73-4.005-1.944-5.875-.688a39.342 39.342 0 1 1 15.306-19.958c-.728 2.132.142 4.551 2.188 5.496Z" fill="#E6FBD9"/><path d="M90.92 47.5c2.254 0 4.098 1.83 3.905 4.074a47.502 47.502 0 0 1-72.285 36.34 47.5 47.5 0 0 1 .126-80.905c1.92-1.178 4.382-.348 5.391 1.666 1.009 2.015.18 4.448-1.72 5.66A39.342 39.342 0 1 0 86.63 51.572c.234-2.24 2.038-4.072 4.29-4.072Z" fill="#44C13C"/><path d="m52 42 2.29 2.29-4.88 4.88-4-4L38 52.59 39.41 54l6-6 4 4 6.3-6.29L58 48v-6h-6Z" fill="#2BA52E" opacity=".9"/></svg>
