<svg fill="none" xmlns="http://www.w3.org/2000/svg" viewBox="0 0 20 20">
  <path fill-rule="evenodd" clip-rule="evenodd" d="M1.2 10a8.801 8.801 0 1 1 17.603 0A8.801 8.801 0 0 1 1.2 10Zm8.801-7.202a7.201 7.201 0 1 0 0 14.403 7.201 7.201 0 0 0 0-14.403Z" fill="currentColor"/>
  <path fill-rule="evenodd" clip-rule="evenodd" d="M14.062 10.436a.8.8 0 0 1 .524 1.003 4.802 4.802 0 0 1-7.608 2.286.8.8 0 0 1-1.59-.125v-2.4a.8.8 0 0 1 1.563-.24 3.202 3.202 0 0 0 6.108 0 .8.8 0 0 1 1.003-.524ZM5.424 8.559a4.802 4.802 0 0 1 7.608-2.286.8.8 0 0 1 1.59.125v2.4a.8.8 0 0 1-1.563.24 3.202 3.202 0 0 0-6.108 0 .8.8 0 1 1-1.527-.48Z" fill="currentColor"/>
</svg>
