<svg xmlns="http://www.w3.org/2000/svg" width="200" height="200" class="icon" viewBox="0 0 1024 1024"><path d="M768 810.667a42.667 42.667 0 0 1 4.992 85.034L768 896H170.667a42.667 42.667 0 0 1-4.992-85.035l4.992-.298zm-30.848-657.024 5.845 5.632 59.862 61.269a128.427 128.427 0 0 1 4.437 175.061l-5.803 6.102-331.52 328.149c-21.034 20.821-56.576 40.107-86.826 47.445l-8.107 1.707-130.56 23.04c-52.053 9.216-92.843-29.312-87.424-80.384l.853-6.187 23.04-130.56c5.206-29.269 23.296-65.408 43.947-88.96l5.717-6.101 331.52-331.52a126.933 126.933 0 0 1 168.619-10.07zm-209.28 159.573-236.928 236.97c-9.472 9.473-20.523 29.697-24.704 44.374l-1.237 5.205-20.395 115.584 115.627-20.352c11.136-1.962 27.989-9.813 40.106-18.09l5.59-4.139 4.053-3.541L650.197 431.36 527.872 313.259zm98.56-98.09-3.968 3.583-34.261 34.219 122.666 118.357 30.592-30.25c15.574-15.36 16.939-39.595 3.926-56.747l-3.584-4.096-59.862-61.27a41.515 41.515 0 0 0-51.2-6.74l-4.266 2.986z"/></svg>
