<svg xmlns="http://www.w3.org/2000/svg" viewBox="0 0 512 512">
  <path d="M47 1.6C24.9 6.3 6.2 25.2 1.5 47.5-.7 58-.7 454 1.5 464.5c4.7 22.5 23.5 41.3 46 46 10.5 2.2 406.5 2.2 417 0 22.5-4.7 41.3-23.5 46-46 1.3-6 1.5-34 1.5-199v-192l-36.8-36.8L438.5 0 246 .1C84.9.1 52.4.4 47 1.6zM80 119v79h310V40h31.5l25.3 25.3L472 90.5l-.2 184.1-.3 184-2.5 3.7c-1.4 2.1-4.3 5-6.4 6.5-3.7 2.6-4.6 2.7-17.3 3l-13.3.4V274H80v198.2l-13.3-.4c-12.7-.3-13.6-.4-17.3-3-2.1-1.5-5-4.4-6.4-6.5l-2.5-3.7-.3-200.4c-.1-133.8.1-201.7.8-204.2 1.2-4.6 8-11.6 12.4-12.9 1.7-.5 8.4-1 14.9-1L80 40v79zm270-20v59H120V40h230v59zm42 294v79H120V314h272v79z"/>
  <path d="M274 98.5V138h40V59h-40v39.5z"/>
</svg>
