<svg fill="none" xmlns="http://www.w3.org/2000/svg" viewBox="0 0 20 20">
  <path d="M8.335 10.833H2.5a.833.833 0 0 0-.833.833v5.833a.833.833 0 0 0 .833.834h5.834a.833.833 0 0 0 .833-.834v-5.833a.833.833 0 0 0-.833-.833ZM7.5 16.666H3.335v-4.167H7.5v4.167Zm10-15h-5.833a.833.833 0 0 0-.833.833v5.834a.833.833 0 0 0 .833.833h5.833a.833.833 0 0 0 .834-.833V2.499a.834.834 0 0 0-.834-.833Zm-.833 5.833h-4.167V3.333h4.167v4.166Zm.833 3.334h-5.833a.833.833 0 0 0-.833.833v5.833a.833.833 0 0 0 .833.834h5.833a.833.833 0 0 0 .834-.834v-5.833a.833.833 0 0 0-.834-.833Zm-.833 5.833h-4.167v-4.167h4.167v4.167Zm-8.333-15H2.5a.833.833 0 0 0-.833.833v5.834a.833.833 0 0 0 .833.833h5.834a.833.833 0 0 0 .833-.833V2.499a.833.833 0 0 0-.833-.833ZM7.5 7.499H3.335V3.333H7.5v4.166Z" fill="currentColor"/>
</svg>
