<svg fill="none" xmlns="http://www.w3.org/2000/svg" viewBox="0 0 16 16">
  <path fill-rule="evenodd" clip-rule="evenodd" d="M8 16A8 8 0 1 0 8 0a8 8 0 0 0 0 16Zm4.235-7.765a.8.8 0 0 1 .53 1C12.133 11.29 10.248 12.8 8 12.8a4.913 4.913 0 0 1-3.201-1.183.8.8 0 0 1-1.599-.046V9a.8.8 0 0 1 1.565-.235C5.202 10.187 6.495 11.2 8 11.2c1.506 0 2.798-1.013 3.235-2.435a.8.8 0 0 1 1-.53ZM8 3.2c-2.248 0-4.133 1.51-4.765 3.565a.8.8 0 0 0 1.53.47C5.202 5.813 6.495 4.8 8 4.8c1.506 0 2.798 1.013 3.235 2.435A.8.8 0 0 0 12.8 7V4.429a.8.8 0 0 0-1.599-.046A4.913 4.913 0 0 0 8 3.2Z" fill="currentColor"/>
</svg>
