<svg xmlns="http://www.w3.org/2000/svg" width="200" height="200" class="icon" viewBox="0 0 1024 1024"><path d="M512 85.333c282.752 0 426.667 143.915 426.667 426.667S794.752 938.667 512 938.667 85.333 794.752 85.333 512 229.248 85.333 512 85.333zm0 85.334c-235.648 0-341.333 105.685-341.333 341.333S276.352 853.333 512 853.333 853.333 747.648 853.333 512 747.648 170.667 512 170.667zM512 640a42.667 42.667 0 1 1 0 85.333A42.667 42.667 0 0 1 512 640zm0-341.333a42.667 42.667 0 0 1 42.667 42.666v213.334a42.667 42.667 0 0 1-85.334 0V341.333A42.667 42.667 0 0 1 512 298.667z"/></svg>