<svg fill="none" xmlns="http://www.w3.org/2000/svg" viewBox="0 0 20 20">
  <path fill-rule="evenodd" clip-rule="evenodd" d="M6.59 3.083a.172.172 0 0 0-.172.172V5.18a1 1 0 0 1-2 0V3.255c0-1.2.972-2.172 2.172-2.172h10.156c1.2 0 2.172.972 2.172 2.172V13.41c0 1.2-.972 2.172-2.172 2.172H14.8a1 1 0 1 1 0-2h1.946a.172.172 0 0 0 .172-.172V3.255a.172.172 0 0 0-.172-.172H6.59Z" fill="currentColor"/>
  <path fill-rule="evenodd" clip-rule="evenodd" d="M1.082 6.589c0-1.2.972-2.172 2.172-2.172H13.41c1.2 0 2.172.972 2.172 2.172v10.156c0 1.2-.972 2.172-2.172 2.172H3.254c-1.2 0-2.172-.972-2.172-2.172V6.59Zm2.172-.172a.172.172 0 0 0-.172.172v10.156c0 .095.077.172.172.172H13.41a.172.172 0 0 0 .172-.172V6.59a.172.172 0 0 0-.172-.172H3.254Z" fill="currentColor"/>
</svg>
