<svg class="icon" viewBox="0 0 1024 1024" xmlns="http://www.w3.org/2000/svg" width="200" height="200"><path d="M791.418 378.812h-9.314V332.24C780.24 183.218 659.16 64 512 64S243.758 183.218 241.896 330.378v46.57h-9.314c-57.746 0-104.316 46.57-104.316 104.316V766.27h.1c-.044.622-.1 1.242-.1 1.864 0 126.67 59.61 191.868 178.828 191.868h409.812c117.356 0 178.828-65.198 178.828-191.868V483.128c0-57.748-46.57-104.316-104.316-104.316zm34.464 387.25c0 92.738-33.886 130.192-117.708 130.192H315.826c-83.822 0-117.708-35.668-117.708-130.192V493.2c0-24.968 21.402-46.37 46.37-46.37h535.028c24.964 0 46.368 21.402 46.368 46.37v272.862zm-114.05-389.114H312.168v-39.26c0-114.208 90.358-207.004 199.83-207.004 109.474 0 199.834 92.796 199.834 205.22v41.044z"/><path d="M508.376 799.8c20.492 0 40.982-16.766 40.982-40.982v-96.864c18.628-13.04 31.668-35.392 31.668-59.61 0-40.982-31.668-70.788-68.924-70.788-37.254 0-68.922 33.532-68.922 70.788-1.862 24.216 9.314 48.432 26.08 59.61v96.864c-1.866 24.216 16.762 40.982 39.116 40.982z"/></svg>
