<?xml version="1.0" standalone="no"?><!DOCTYPE svg PUBLIC "-//W3C//DTD SVG 1.1//EN" "http://www.w3.org/Graphics/SVG/1.1/DTD/svg11.dtd"><svg t="1686530639676" class="icon" viewBox="0 0 1024 1024" version="1.1" xmlns="http://www.w3.org/2000/svg" p-id="10154" xmlns:xlink="http://www.w3.org/1999/xlink" width="200" height="200"><path d="M512 272a240 240 0 0 1 48 475.2v161.856l9.792-1.216a400.128 400.128 0 0 0 341.952-381.184L912 512a48 48 0 1 1 96 0 496 496 0 0 1-480.256 495.744L512 1008h-48v-260.8A240.064 240.064 0 0 1 512 272z m-342.72 446.336a401.792 401.792 0 0 0 113.536 121.6 48 48 0 0 1-55.04 78.592A498.368 498.368 0 0 1 87.104 768a48 48 0 1 1 82.176-49.664zM512 368a144 144 0 1 0 0 288 144 144 0 0 0 0-288z m0-352a48 48 0 0 1 0 96A400 400 0 0 0 112 512a48 48 0 0 1-96 0A496 496 0 0 1 512 16z m285.632 90.432a498.304 498.304 0 0 1 140.48 151.616 48 48 0 1 1-82.432 49.216 402.304 402.304 0 0 0-113.408-122.368 48 48 0 0 1 55.36-78.464z" p-id="10155"></path></svg>
