<svg class="icon" viewBox="0 0 1024 1024" xmlns="http://www.w3.org/2000/svg" width="200" height="200"><path d="M976 464h-51.008C902.912 272.96 751.04 121.088 560 99.008V48a48 48 0 1 0-96 0v51.008C272.96 121.088 121.088 272.96 99.008 464H48a48 48 0 1 0 0 96h51.008C121.088 751.04 272.96 902.912 464 924.992V976a48 48 0 1 0 96 0v-51.008C751.04 902.912 902.912 751.04 924.992 560H976a48 48 0 1 0 0-96zM560 828v-44a48 48 0 1 0-96 0v44a320.224 320.224 0 0 1-268-268h44a48 48 0 1 0 0-96h-44a320.192 320.192 0 0 1 268-268v44a48 48 0 1 0 96 0v-44a320.192 320.192 0 0 1 268 268h-44a48 48 0 1 0 0 96h44a320.224 320.224 0 0 1-268 268z"/><path d="M512 381.344A130.816 130.816 0 0 0 381.344 512 130.816 130.816 0 0 0 512 642.656 130.816 130.816 0 0 0 642.656 512 130.816 130.816 0 0 0 512 381.344zm0 165.312a34.688 34.688 0 0 1 0-69.312c19.104 0 34.656 15.552 34.656 34.656S531.104 546.656 512 546.656z"/></svg>
