<svg class="icon" viewBox="0 0 1024 1024" xmlns="http://www.w3.org/2000/svg" width="200" height="200"><path d="M281.6 137.813a128 128 0 0 0-128 128v469.334a128 128 0 0 0 128 128h213.333a42.667 42.667 0 1 0 0-85.334H281.6a42.667 42.667 0 0 1-42.667-42.666V265.813a42.667 42.667 0 0 1 42.667-42.666h469.333a42.667 42.667 0 0 1 42.667 42.666v213.334a42.667 42.667 0 1 0 85.333 0V265.813a128 128 0 0 0-128-128H281.6zm294.613 380.544 42.155 365.184a21.333 21.333 0 0 0 38.357 10.24l80.214-108.629 114.048 169.941a42.667 42.667 0 1 0 70.826-47.573L807.765 737.579l124.416-36.694a21.333 21.333 0 0 0 3.499-39.552L606.933 496.811a21.333 21.333 0 0 0-30.72 21.546z" /></svg>
