<svg viewBox="0 0 20 20" fill="none" xmlns="http://www.w3.org/2000/svg"><path fill-rule="evenodd" clip-rule="evenodd" d="M3.402 3.4a9.307 9.307 0 0 1 6.6-2.733A9.308 9.308 0 0 1 16.6 3.401a9.307 9.307 0 0 1 2.734 6.6A9.307 9.307 0 0 1 16.6 16.6a9.308 9.308 0 0 1-6.6 2.734 9.307 9.307 0 0 1-6.6-2.734A9.307 9.307 0 0 1 .669 10a9.307 9.307 0 0 1 2.734-6.6Zm6.6-.733c-2.026 0-3.858.82-5.186 2.148A7.307 7.307 0 0 0 2.668 10c0 2.026.82 3.858 2.148 5.186A7.308 7.308 0 0 0 10 17.334c2.026 0 3.858-.82 5.186-2.148A7.307 7.307 0 0 0 17.335 10c0-2.025-.82-3.857-2.148-5.185A7.307 7.307 0 0 0 10 2.667Z" fill="currentColor"/><path fill-rule="evenodd" clip-rule="evenodd" d="M9.999 4.583a1.042 1.042 0 1 1 0 2.083 1.042 1.042 0 0 1 0-2.083Z" fill="currentColor"/><path fill-rule="evenodd" clip-rule="evenodd" d="M10.54 5.625a.542.542 0 1 0-1.083 0 .542.542 0 0 0 1.083 0Zm.5 0a1.042 1.042 0 1 0-2.083 0 1.042 1.042 0 0 0 2.083 0Z" fill="currentColor"/><path d="M10.208 14.166V8.333h-.833" fill="currentColor"/><path fill-rule="evenodd" clip-rule="evenodd" d="M8.375 8.333a1 1 0 0 1 1-1h.833a1 1 0 0 1 1 1v5.833a1 1 0 1 1-2 0V9.32a1 1 0 0 1-.833-.986Z" fill="currentColor"/><path fill-rule="evenodd" clip-rule="evenodd" d="M7.75 14.167a1 1 0 0 1 1-1h2.917a1 1 0 1 1 0 2H8.75a1 1 0 0 1-1-1Z" fill="currentColor"/></svg>
