<svg xmlns="http://www.w3.org/2000/svg" width="200" height="200" class="icon" viewBox="0 0 1024 1024"><path d="M85.333 213.333v597.334a128 128 0 0 0 128 128h597.334a128 128 0 0 0 128-128V213.333a128 128 0 0 0-128-128H213.333a128 128 0 0 0-128 128zm725.334 640H213.333a42.667 42.667 0 0 1-42.666-42.666V213.333a42.667 42.667 0 0 1 42.666-42.666h597.334a42.667 42.667 0 0 1 42.666 42.666v597.334a42.667 42.667 0 0 1-42.666 42.666z"/><path d="M384 682.667h256q42.667 0 42.667 42.666Q682.667 768 640 768H384q-42.667 0-42.667-42.667 0-42.666 42.667-42.666ZM594.773 597.333a35.2 35.2 0 0 1-17.066-4.48l-64-34.986a2.56 2.56 0 0 0-2.987 0l-64 34.986a35.2 35.2 0 0 1-38.827-2.986 38.4 38.4 0 0 1-14.72-37.334l12.16-74.24a3.413 3.413 0 0 0-1.066-2.986l-51.84-52.48A39.04 39.04 0 0 1 343.253 384a36.48 36.48 0 0 1 29.654-26.027l71.68-10.88a3.2 3.2 0 0 0 2.346-1.706l32-68.054a36.267 36.267 0 0 1 66.134 0l32 67.627a3.2 3.2 0 0 0 2.346 1.707l71.68 10.88A36.48 36.48 0 0 1 680.747 384a39.04 39.04 0 0 1-9.174 39.253l-51.84 52.48a4.053 4.053 0 0 0-1.066 2.987l12.373 74.24a38.4 38.4 0 0 1-14.72 37.333 35.2 35.2 0 0 1-21.547 7.04zM512 486.827a24.107 24.107 0 0 1 10.667 2.773l39.893 21.333a2.56 2.56 0 0 0 2.133 0 2.347 2.347 0 0 0 0-1.92l-7.68-46.72a24.32 24.32 0 0 1 6.614-21.333l33.706-32.427a1.707 1.707 0 0 0 0-2.133 1.707 1.707 0 0 0-1.493-1.493l-44.587-6.827a22.4 22.4 0 0 1-17.92-14.08l-20.053-42.667s0-1.066-1.707-1.066-1.706 0-1.706 1.066L490.667 384a22.4 22.4 0 0 1-17.28 13.227l-45.014 8.106a1.707 1.707 0 0 0-1.493 1.494 1.707 1.707 0 0 0 0 1.92l32.213 33.28a24.107 24.107 0 0 1 6.614 21.333l-7.68 46.72a2.133 2.133 0 0 0 0 2.133 2.347 2.347 0 0 0 2.133 0l39.893-21.333A24.107 24.107 0 0 1 512 486.827z"/></svg>