<?xml version="1.0" standalone="no"?><!DOCTYPE svg PUBLIC "-//W3C//DTD SVG 1.1//EN" "http://www.w3.org/Graphics/SVG/1.1/DTD/svg11.dtd"><svg t="1683784440901" class="icon" viewBox="0 0 1024 1024" version="1.1" xmlns="http://www.w3.org/2000/svg" p-id="2773" xmlns:xlink="http://www.w3.org/1999/xlink" width="200" height="200"><path d="M112.528024 679.36819c5.296424-5.296424 12.629933-8.148344 20.37086-7.740927 15.889271 0 24.445032 6.926092 29.741456 22.815363 22.000529 62.334832 61.927415 109.595228 119.780659 142.188605 13.037351 6.926092 26.074701 13.037351 39.926886 17.51894 25.259867 8.555761 30.963708 33.000794 12.222516 51.741985-27.296953 28.111787-55.40874 55.40874-83.11311 82.705693-9.370596 9.370596-19.148609 13.444768-31.778542 8.963178-13.037351-4.481589-19.148609-14.259602-19.963443-28.111787-0.407417-8.148344 0-17.111523-0.407417-25.667284-0.407417-15.889271-0.407417-15.889271-15.074437-11.000265l-92.891122 30.556291c-9.370596 3.259338-17.926357 4.074172-26.889536-0.814835-13.037351-7.33351-18.333774-20.37086-12.629933-36.667548 10.18543-31.371125 20.778277-63.149667 31.778542-94.928209 4.481589-13.444768 4.074172-13.852185-10.592848-14.259602-8.963179 0-17.51894 0-26.889535-0.407417-12.222516 0-23.222781-7.33351-26.889536-19.148609-4.481589-12.222516-2.037086-22.407946 6.926093-30.963707 29.334039-29.334039 58.26066-57.853243 86.372447-86.779865zM706.949727 199.838139c-63.964501-0.814834-118.965824 45.22331-120.595493 117.743573-1.222252 59.890329 53.371654 114.891652 114.484235 115.299069 64.779336 0.407417 117.336155-51.334568 118.150989-116.113904 0.814834-62.74225-50.519733-116.113904-112.039731-116.928738z m254.228336 156.855624c-40.741721 105.113639-100.63205 197.597345-184.152577 274.191779-6.111258 5.296424-9.370596 13.852185-8.148344 22.000529 2.85192 28.519204 5.296424 56.630992 8.148344 85.150196 6.926092 66.001587-16.296688 119.780658-70.075759 158.077876-57.445826 40.741721-116.521321 79.038938-175.596816 117.743572-24.85245 17.51894-59.482912 11.815099-77.001852-13.03735-6.111258-8.555761-9.370596-18.333774-10.18543-28.926622-4.481589-50.519733-8.963179-101.446884-12.222516-151.966617-1.629669-25.667284-0.814834-25.667284-25.667284-28.926622-65.186753-8.963179-116.521321-39.519469-151.5592-95.743043-17.111523-28.926622-27.70437-61.112581-30.148873-94.520792-0.814834-10.18543-5.296424-12.629933-14.259603-13.03735-52.556819-2.85192-105.928473-6.111258-158.485292-10.185431C8.22922 574.254551-14.178727 528.216407 9.858888 489.919189c16.296688-26.889536 34.223045-53.371654 51.334568-80.261189 17.926357-28.926622 36.667548-57.853243 55.001323-86.372448 33.408211-52.556819 82.298275-80.668607 144.225691-81.890858 35.445297 0 71.298011 6.111258 106.743307 9.778013 6.926092 0.407417 11.815099 0 16.296689-5.703841C465.758741 153.392578 568.427877 91.057745 684.54178 49.093773c65.59417-23.630198 132.818009-39.112052 201.671517-46.038144 35.03788-3.666755 70.075759-4.889006 104.706222 1.222252 19.148609 3.666755 19.963443 4.074172 22.815363 22.815363 2.85192 19.148609 5.703841 37.482383 4.48159 56.630992-2.444503 94.520792-23.222781 185.374828-57.038409 272.969527z" p-id="2774"></path></svg>