<svg xmlns="http://www.w3.org/2000/svg" width="200" height="200" class="icon" viewBox="0 0 1024 1024"><path d="M640.458 54c17.496 0 31.713 14.042 31.996 31.47l.004.53-.001 228.082 150.634 312.296.085.17L918.89 824.98A101.8 101.8 0 0 1 929 869.21C929 925.424 883.432 971 827.22 971H196.797c-15.36 0-30.522-3.477-44.347-10.171-50.594-24.494-71.755-85.37-47.265-135.97l95.998-198.35L352.4 314.061V86c0-17.496 14.043-31.713 31.472-32zm24.857 572.442c-29.579-3.444-57.864-.566-84.4 9.686-16.917 6.536-33.093 16.062-48.5 28.903l-1.1.912c-20.176 16.63-41.72 29.304-64.396 38.183-36.893 14.445-75.686 18.503-115.227 13.947-31.09-3.583-61.202-12.287-89.679-24.53a360 360 0 0 1-17.66-8.163l-.453-.225-81.109 167.586c-9.002 18.6-1.391 40.94 16.986 50.207l.56.277a37.8 37.8 0 0 0 16.46 3.775H827.22c20.863 0 37.78-16.92 37.78-37.79 0-5.689-1.283-11.3-3.754-16.424L769.524 662.63l-1.278-.754q-.6-.35-1.222-.71l-.63-.363c-8.652-4.963-18.546-9.964-29.446-14.638-23.078-9.897-47.269-16.887-71.633-19.723M608.457 118H416.399v203.398a32 32 0 0 1-2.938 13.395l-.257.546-141.421 292.204a295 295 0 0 0 15.51 7.204c23.103 9.933 47.326 16.935 71.726 19.747 29.633 3.414 57.972.45 84.567-9.963 16.674-6.529 32.633-15.978 47.853-28.662l1.094-.907c20.443-16.851 42.297-29.64 65.317-38.533 36.786-14.213 75.453-18.146 114.866-13.558 18.471 2.15 36.599 6.1 54.244 11.519L611.636 335.3a32 32 0 0 1-3.172-13.3l-.006-.602z"/></svg>
