<svg viewBox="0 0 16 16" fill="none" xmlns="http://www.w3.org/2000/svg"><path fill-rule="evenodd" clip-rule="evenodd" d="M14 11a1 1 0 0 1 1 1v2a1 1 0 0 1-1 1H2a1 1 0 0 1-1-1v-1.997a1 1 0 1 1 2 0V13h10v-1a1 1 0 0 1 1-1ZM4.293 6.307a1 1 0 0 0 1.414 0L8 4.014l2.293 2.293a1 1 0 1 0 1.414-1.414l-3-3a1 1 0 0 0-1.414 0l-3 3a1 1 0 0 0 0 1.414Z" fill="currentColor"/><path fill-rule="evenodd" clip-rule="evenodd" d="M7.996 11.668a1 1 0 0 0 1-1V2.6a1 1 0 1 0-2 0v8.067a1 1 0 0 0 1 1Z" fill="currentColor"/></svg>
