<svg xmlns="http://www.w3.org/2000/svg" width="200" height="200" class="icon" viewBox="0 0 1024 1024"><path d="m236.464 511.483 6.956-1.66.711-.202c18.797-6.247 31.427-22.881 31.427-41.39 0-17.867-11.495-33.782-29.308-40.621-34.934-15.874-57.497-50.675-57.497-88.735 0-44.332 39.224-80.122 77.97-92.564l4.155-1.334 1.352-4.147c7.134-21.873 17.898-42.276 31.996-60.642l.525-.768a231 231 0 0 1 7.672-11.783l8.788-12.66-15.394-.737c-.89-.043-1.92-.187-3.014-.34-1.753-.248-3.74-.526-5.983-.526-102.931 0-186.672 83.217-186.672 185.504 0 42.366 14.654 83.235 41.472 116.231C59.84 506.65 3.27 602.864 3.27 708.76v54.736c0 24.223 19.806 43.93 44.151 43.93h72.367v-8.537c0-22.88 2.161-37.297 7.007-60.954l2.099-10.252h-47.02v-18.925c.004-93.33 63.61-174.46 154.59-197.274m632.666-56.379c26.819-32.995 41.473-73.866 41.473-116.231 0-102.305-83.74-185.536-186.673-185.536-2.245 0-4.234.282-5.987.528-1.091.155-2.12.3-3.01.342l-15.397.734 8.79 12.663a229 229 0 0 1 7.671 11.783l.526.77c14.11 18.376 24.864 38.776 31.967 60.634l1.35 4.156 4.16 1.334c40.672 13.055 83.9 49.933 83.9 92.563 0 38.07-22.56 72.873-57.494 88.735-17.82 6.832-29.316 22.746-29.316 40.62 0 18.503 12.63 35.135 31.426 41.385l7.575 1.844c91.075 22.856 154.684 103.997 154.684 197.323v18.925h-52.99l2.114 10.26c4.746 23.04 7.003 38.037 7.003 60.946v8.537h72.368c24.346 0 44.152-19.707 44.152-43.93v-54.733c.057-105.887-56.482-202.102-148.292-253.652"/><path d="M658.522 467.93c47.421-42.03 74.337-101.218 74.337-164.504 0-121.791-99.718-220.876-222.287-220.876s-222.286 99.085-222.286 220.876c0 63.29 26.916 122.476 74.336 164.504-61.364 27.133-113.81 70.316-152.293 125.55-42.22 60.598-64.534 131.627-64.534 205.404v70.758c0 24.227 19.806 43.936 44.151 43.936h641.25c24.346 0 44.152-19.709 44.152-43.936v-70.758c0-73.8-22.315-144.836-64.532-205.426-38.48-55.218-90.926-98.393-152.294-125.528m-147.924 49.3c162.167 0 294.101 131.062 294.101 292.16v29.049H216.414V809.39c0-161.098 131.97-292.16 294.184-292.16m-146.12-214.084c0-79.99 65.538-145.068 146.092-145.068s146.093 65.077 146.093 145.068-65.536 145.067-146.092 145.067-146.093-65.076-146.093-145.067"/></svg>
