<svg class="icon" viewBox="0 0 1024 1024" xmlns="http://www.w3.org/2000/svg" width="200" height="200"><path d="M857.6 51.2c63.317 0 115.2 51.883 115.2 115.2v506.88c0 63.403-51.797 115.2-115.2 115.2h-69.12v69.12c0 63.317-51.797 115.2-115.2 115.2H166.4c-63.317 0-115.2-51.797-115.2-115.2V350.72c0-63.403 51.883-115.2 115.2-115.2h69.12V166.4c0-63.317 51.883-115.2 115.2-115.2H857.6zm46.08 622.08V166.4a46.677 46.677 0 0 0-46.08-46.08H350.72a46.677 46.677 0 0 0-46.08 46.08v69.12h368.64c63.403 0 115.2 51.883 115.2 115.2v368.64h69.12c25.003 0 46.08-21.077 46.08-46.08zM719.36 857.6V350.72a46.677 46.677 0 0 0-46.08-46.08H166.4a46.677 46.677 0 0 0-46.08 46.08V857.6c0 25.003 21.077 46.08 46.08 46.08h506.88c25.003 0 46.08-21.077 46.08-46.08zM472.576 455.083l138.24 138.24a34.304 34.304 0 0 1 0 48.896l-138.24 138.24a34.56 34.56 0 1 1-48.896-48.896l79.19-79.19H253.354a34.56 34.56 0 1 1 0-69.12h249.6l-79.36-79.36a34.645 34.645 0 0 1 48.981-48.81z"/></svg>
