<svg width="20" height="20" viewBox="0 0 20 20" fill="none" xmlns="http://www.w3.org/2000/svg">
  <path fill-rule="evenodd" clip-rule="evenodd" d="M2.49998 1.85001C2.14099 1.85001 1.84998 2.14102 1.84998 2.50001V17.5C1.84998 17.859 2.14099 18.15 2.49998 18.15H4.49998H8.49998H10.5H17.5C17.859 18.15 18.15 17.859 18.15 17.5V7.50001C18.15 7.14102 17.859 6.85001 17.5 6.85001H11.15V2.50001C11.15 2.14102 10.859 1.85001 10.5 1.85001H2.49998ZM7.84998 16.85H5.14998V13.15H7.84998V16.85ZM9.14998 12.5V16.85H9.84998L9.84998 7.50001L9.84998 7.49921V3.15001H3.14998V16.85H3.84998V12.5C3.84998 12.141 4.14099 11.85 4.49998 11.85H8.49998C8.85896 11.85 9.14998 12.141 9.14998 12.5ZM11.15 16.85H16.85V8.15001H11.15V16.85ZM5.14998 5.20001C4.79099 5.20001 4.49998 5.49102 4.49998 5.85001C4.49998 6.20899 4.79099 6.50001 5.14998 6.50001H7.84998C8.20896 6.50001 8.49998 6.20899 8.49998 5.85001C8.49998 5.49102 8.20896 5.20001 7.84998 5.20001H5.14998ZM12.5 11.85C12.5 11.491 12.791 11.2 13.15 11.2H14.85C15.209 11.2 15.5 11.491 15.5 11.85C15.5 12.209 15.209 12.5 14.85 12.5H13.15C12.791 12.5 12.5 12.209 12.5 11.85ZM5.14998 8.20001C4.79099 8.20001 4.49998 8.49102 4.49998 8.85001C4.49998 9.20899 4.79099 9.50001 5.14998 9.50001H7.84998C8.20896 9.50001 8.49998 9.20899 8.49998 8.85001C8.49998 8.49102 8.20896 8.20001 7.84998 8.20001H5.14998Z" fill="currentColor"/>
</svg>
