<svg class="icon" viewBox="0 0 1024 1024" xmlns="http://www.w3.org/2000/svg" width="200" height="200">
  <path
    d="M808.021 295.936c0 163.2-132.821 295.979-296.021 295.979-238.208 0-432 193.749-432 431.957H0c0-136.747 53.248-265.301 149.973-362.027a509.995 509.995 0 0 1 194.56-122.026 295.85 295.85 0 0 1-128.512-243.883C216.021 132.779 348.8 0 512 0s296.021 132.779 296.021 295.936zm-512 0A216.235 216.235 0 0 0 512 511.915a216.235 216.235 0 0 0 216.021-215.979A216.235 216.235 0 0 0 512 80a216.235 216.235 0 0 0-216.021 215.936zm528 327.979A200.192 200.192 0 0 1 1024 823.893a200.192 200.192 0 0 1-200.021 199.979 200.747 200.747 0 0 1-159.915-80H417.707l-101.76-99.115v-39.424l101.461-101.418h246.613a200.747 200.747 0 0 1 159.915-80zm0 319.957A120.107 120.107 0 0 0 944 823.893a120.107 120.107 0 0 0-120.021-119.978c-42.667 0-82.475 22.997-103.894 60.032l-11.52 19.925H450.56l-40.661 40.661 40.362 39.339h57.046l52.224-54.997 57.898 55.04h91.094l11.52 19.925a120.49 120.49 0 0 0 103.936 60.032zm39.979-80a39.979 39.979 0 1 1 0-80 39.979 39.979 0 0 1 0 80z"/>
</svg>
