<svg xmlns="http://www.w3.org/2000/svg" width="200" height="200" class="icon" viewBox="0 0 1024 1024"><path fill="#595959" d="M773.12 102.4A122.88 122.88 0 0 1 896 225.28v573.44A122.88 122.88 0 0 1 773.12 921.6H250.88A122.88 122.88 0 0 1 128 798.72v-84.582h-25.6a38.4 38.4 0 0 1-5.222-76.39l5.222-.36 25.6-.05v-87.04h-25.6a38.4 38.4 0 0 1-5.222-76.39l5.222-.36 25.6-.05v-87.04h-25.6a38.4 38.4 0 0 1-5.222-76.39l5.222-.36 25.6-.05V225.28A122.88 122.88 0 0 1 250.88 102.4zm0 76.8H250.88a46.08 46.08 0 0 0-45.722 40.294l-.358 5.786v84.429a38.4 38.4 0 0 1 5.222 76.441l-5.222.359v87.04a38.4 38.4 0 0 1 5.222 76.441l-5.222.359v87.04a38.4 38.4 0 0 1 5.222 76.441l-5.222.359v84.531a46.08 46.08 0 0 0 40.294 45.722l5.786.358h522.24a46.08 46.08 0 0 0 45.722-40.294l.358-5.786V225.28a46.08 46.08 0 0 0-40.294-45.722zM537.6 284.16a140.8 140.8 0 0 1 106.65 232.704A217.45 217.45 0 0 1 755.2 706.56a38.4 38.4 0 1 1-76.8 0 140.8 140.8 0 1 0-281.6 0 38.4 38.4 0 1 1-76.8 0c0-81.408 44.749-152.422 111.002-189.747A140.8 140.8 0 0 1 537.6 284.16m0 76.8a64 64 0 1 0 0 128 64 64 0 0 0 0-128"/></svg>
