<svg width="95" height="95" fill="none" xmlns="http://www.w3.org/2000/svg"><path d="M86.922 65.702c2.045.944 4.487.056 5.252-2.063a47.5 47.5 0 1 0-17.5 22.82c1.847-1.288 2.072-3.876.629-5.607-1.442-1.73-4.005-1.944-5.875-.688a39.342 39.342 0 1 1 15.306-19.958c-.728 2.132.142 4.551 2.188 5.496Z" fill="#FFE8D7"/><path d="M47.5 4.08c0-2.254 1.83-4.098 4.074-3.905a47.5 47.5 0 0 1 9.995 92.694c-2.152.667-4.333-.745-4.813-2.946-.48-2.201.924-4.355 3.064-5.06A39.342 39.342 0 0 0 51.572 8.37c-2.24-.234-4.072-2.038-4.072-4.29Z" fill="#FF513A"/><path fill="#FF513A" d="M53 46.5v3H43v-3z"/></svg>
