<?xml version="1.0" standalone="no"?><!DOCTYPE svg PUBLIC "-//W3C//DTD SVG 1.1//EN" "http://www.w3.org/Graphics/SVG/1.1/DTD/svg11.dtd"><svg t="1686500687309" class="icon" viewBox="0 0 1024 1024" version="1.1" xmlns="http://www.w3.org/2000/svg" p-id="260775" xmlns:xlink="http://www.w3.org/1999/xlink" width="200" height="200"><path d="M864.256 832H159.744c-88.064 0-159.744-71.68-159.744-160.256v-512C0 71.68 71.68 0 159.744 0h704C952.32 0 1024 71.68 1024 159.744v512c0 88.576-71.68 160.256-159.744 160.256zM159.744 64c-52.736 0-96.256 43.008-96.256 96.256v512c0 52.736 43.008 96.256 96.256 96.256h704c52.736 0 96.256-43.008 96.256-96.256v-512c0-52.736-43.008-96.256-96.256-96.256H159.744zM0 960h1024V1024H0v-64z m480.256-128h64v128H480.256v-128z" p-id="260776"></path><path d="M494.08 654.848l-153.6-88.064a35.71712 35.71712 0 0 1-17.92-31.744v-176.128c0-13.312 6.656-25.088 17.92-31.744l153.6-88.064a35.59424 35.59424 0 0 1 36.352 0l153.6 88.064c11.264 6.656 17.92 17.92 17.92 31.744v176.128c0 13.312-6.656 25.088-17.92 31.744l-153.6 88.064c-11.776 6.656-25.088 6.656-36.352 0z m-98.816-118.784l96.768 54.272c12.288 7.68 27.136 7.68 39.936 0l96.768-54.272c12.288-7.68 19.968-19.968 19.968-34.816v-111.616c0-14.848-7.68-27.136-19.968-34.816l-96.768-54.272c-12.288-7.68-27.136-7.68-39.936 0l-96.768 57.344c-12.288 7.68-19.968 19.968-19.968 34.816v111.616c2.56 12.288 10.24 24.576 19.968 31.744z" p-id="260777"></path><path d="M475.648 180.224a36.352 36.352 0 1 0 72.704 0 36.352 36.352 0 0 0-72.704 0zM236.032 584.704a36.352 36.352 0 1 0 72.704 0 36.352 36.352 0 0 0-72.704 0zM715.264 578.048a36.352 36.352 0 1 0 72.704 0 36.352 36.352 0 0 0-72.704 0z" p-id="260778"></path><path d="M498.688 182.272h29.184v76.8H498.688V182.272zM275.51744 564.4288l65.4336-40.2432 15.27808 24.84224-65.41312 40.2432-15.27808-24.84224z m390.28736-12.02176l12.61568-26.3168 69.24288 33.21856-12.61568 26.3168-69.24288-33.21856z" p-id="260779"></path></svg>
