<svg class="icon" viewBox="0 0 1024 1024" xmlns="http://www.w3.org/2000/svg" width="200" height="200"><path d="M848.981 465.465V930.9H150.756V465.465h698.197zm0-93.099H150.756a93.355 93.355 0 0 0-93.014 93.099V930.9c-.028 51.2 41.814 93.099 93.014 93.099h698.197c51.2 0 93.099-41.899 93.099-93.099V465.465c0-51.2-41.9-93.099-93.1-93.099z"/><path d="M488.249 93.099c102.4 0 186.197 83.769 186.197 186.169v93.098H302.08v-93.098c0-102.4 83.769-186.17 186.169-186.17zm0-93.099C334.649 0 208.98 125.668 208.98 279.268v186.197h558.535V279.268C767.516 125.668 641.85 0 488.25 0zm-81.465 628.338a93.099 93.099 0 1 0 186.197 0 93.099 93.099 0 0 0-186.197 0z"/><path d="M499.883 861.099c-25.6 0-46.535-20.964-46.535-46.564V651.662c0-25.6 20.935-46.535 46.535-46.535 25.6 0 46.563 20.935 46.563 46.535v162.902c0 25.6-20.963 46.563-46.563 46.563z"/></svg>
