<svg fill="none" xmlns="http://www.w3.org/2000/svg" viewBox="0 0 20 20">
  <path fill-rule="evenodd" clip-rule="evenodd" d="M8.037.667a1 1 0 0 0-.877.519l-1.086 1.98H1.667a1 1 0 0 0 0 2H2.75v13.167a1 1 0 0 0 1 1h12.5a1 1 0 0 0 1-1V5.167h1.083a1 1 0 1 0 0-2h-4.402l-1.06-1.974a1 1 0 0 0-.88-.526H8.036Zm3.624 2.5-.269-.5H8.63l-.274.5h3.306Zm-4.994 2H4.75v12.166h10.5V5.167H6.667Zm1.666 2.166a1 1 0 0 1 1 1v5.417a1 1 0 0 1-2 0V8.333a1 1 0 0 1 1-1Zm4.334 1a1 1 0 1 0-2 0v5.417a1 1 0 0 0 2 0V8.333Z" fill="currentColor"/>
</svg>
