<svg xmlns="http://www.w3.org/2000/svg" width="200" height="200" class="icon" viewBox="0 0 1024 1024"><path d="M512 384a256 256 0 1 0 0 512 256 256 0 0 0 0-512zM170.667 640a341.333 341.333 0 1 1 682.666 0 341.333 341.333 0 0 1-682.666 0z"/><path d="M85.333 170.667a85.333 85.333 0 0 1 85.334-85.334h682.666a85.333 85.333 0 0 1 85.334 85.334v170.666a42.667 42.667 0 0 1-17.92 34.774L800.725 461.44a42.667 42.667 0 1 1-49.45-69.547l102.058-72.533V170.667H170.667v148.65l102.058 72.576a42.667 42.667 0 0 1-49.45 69.547l-120.022-85.333a42.667 42.667 0 0 1-17.92-34.774V170.667z"/><path d="M384 85.333A42.667 42.667 0 0 1 426.667 128v213.333a42.667 42.667 0 0 1-85.334 0V128A42.667 42.667 0 0 1 384 85.333zm256 0A42.667 42.667 0 0 1 682.667 128v213.333a42.667 42.667 0 0 1-85.334 0V128A42.667 42.667 0 0 1 640 85.333zM512 554.667a85.333 85.333 0 1 0 0 170.666 42.667 42.667 0 0 1 0 85.334A170.667 170.667 0 1 1 682.667 640a42.667 42.667 0 1 1-85.334 0A85.333 85.333 0 0 0 512 554.667z"/></svg>
