<svg width="20" height="20" fill="none" xmlns="http://www.w3.org/2000/svg"><path fill-rule="evenodd" clip-rule="evenodd" d="M9.724.673a1 1 0 0 1 .56 0l7.344 2.145a1 1 0 0 1 .72.96v4.4c0 5.053-3.235 9.54-8.03 11.138a1 1 0 0 1-.633 0 11.743 11.743 0 0 1-8.032-11.14V3.777a1 1 0 0 1 .72-.96L9.723.673Zm-6.07 3.855v3.647A9.743 9.743 0 0 0 10 17.308a9.741 9.741 0 0 0 6.346-9.13v-3.65l-6.343-1.853-6.35 1.853Z" fill="currentColor"/><path fill-rule="evenodd" clip-rule="evenodd" d="M14.789 6.64a1 1 0 0 1 0 1.414L9.89 12.952a1 1 0 0 1-1.414 0L5.62 10.095A1 1 0 0 1 7.034 8.68l2.15 2.15 4.19-4.19a1 1 0 0 1 1.415 0Z" fill="currentColor"/></svg>
