<svg xmlns="http://www.w3.org/2000/svg" width="200" height="200" class="icon" viewBox="0 0 1024 1024"><path d="M736 1024H51.2q-19.2 0-19.2-19.2V339.2Q32 320 51.2 320h224c6.4 0 12.8-6.4 12.8-19.2V83.2Q288 64 307.2 64h160c6.4 0 12.8-6.4 12.8-19.2V19.2Q480 0 499.2 0h25.6Q544 0 544 19.2v25.6Q544 64 563.2 64h160c6.4 0 12.8 6.4 12.8 19.2v345.6q0 19.2 19.2 19.2h224c6.4 0 12.8 6.4 12.8 19.2v537.6q0 19.2-19.2 19.2zM288 384H115.2Q96 384 96 403.2v544c0 6.4 6.4 12.8 19.2 12.8h25.6q19.2 0 19.2-19.2v-89.6q0-19.2 19.2-19.2h25.6q19.2 0 19.2 19.2v89.6q0 19.2 19.2 19.2h25.6q19.2 0 19.2-19.2zm384 64V147.2q0-19.2-19.2-19.2H371.2q-19.2 0-19.2 19.2v800c0 6.4 6.4 12.8 19.2 12.8h57.6q19.2 0 19.2-19.2v-89.6q0-19.2 19.2-19.2h89.6q19.2 0 19.2 19.2v89.6q0 19.2 19.2 19.2h64q19.2 0 19.2-19.2zm256 64H755.2q-19.2 0-19.2 19.2v416q0 19.2 19.2 19.2h25.6q19.2 0 19.2-19.2v-89.6q0-19.2 19.2-19.2h25.6q19.2 0 19.2 19.2v89.6q0 19.2 19.2 19.2h25.6q19.2 0 19.2-19.2zM800 704h44.8q19.2 0 19.2 19.2v32q0 19.2-19.2 19.2h-25.6q-19.2 0-19.2-19.2zm0-128h44.8q19.2 0 19.2 19.2v32q0 19.2-19.2 19.2h-25.6q-19.2 0-19.2-19.2zM441.6 704h108.8q19.2 0 19.2 19.2v32q0 19.2-19.2 19.2h-89.6q-19.2 0-19.2-19.2zm0-128h108.8q19.2 0 19.2 19.2v32q0 19.2-19.2 19.2h-89.6q-19.2 0-19.2-19.2zm0-128h108.8q19.2 0 19.2 19.2v32c0 6.4-6.4 12.8-19.2 12.8h-89.6q-19.2 0-19.2-19.2zm0-128h108.8q19.2 0 19.2 19.2v32c0 6.4-6.4 12.8-19.2 12.8h-89.6q-19.2 0-19.2-19.2zm0-128h108.8q19.2 0 19.2 19.2v32c0 6.4-6.4 12.8-19.2 12.8h-89.6q-19.2 0-19.2-19.2zM160 704h44.8q19.2 0 19.2 19.2v32c0 6.4-6.4 12.8-19.2 12.8h-25.6q-19.2 0-19.2-19.2zm0-128h44.8q19.2 0 19.2 19.2v32c0 6.4-6.4 12.8-19.2 12.8h-25.6q-19.2 0-19.2-19.2zm0-128h44.8q19.2 0 19.2 19.2v32c0 6.4-6.4 12.8-19.2 12.8h-25.6q-19.2 0-19.2-19.2z"/></svg>
