<svg xmlns="http://www.w3.org/2000/svg" width="200" height="200" class="icon" data-spm-anchor-id="a313x.search_index.0.i1.687c3a81ryayoM" viewBox="0 0 1072 1024"><path d="M536.472 0a195.044 195.044 0 0 1 48.761 383.945v57.587A439.29 439.29 0 0 1 951.04 733.416a146.38 146.38 0 0 1-24.478 290.567A146.283 146.283 0 0 1 853.42 750.97a341.52 341.52 0 0 0-268.137-211.136l-.049 199.92a146.332 146.332 0 1 1-97.522 0v-199.92A341.77 341.77 0 0 0 219.427 751.02a146.283 146.283 0 1 1-97.522-17.554 439.19 439.19 0 0 1 365.806-291.933v-57.587A195.142 195.142 0 0 1 536.472 0M146.383 828.939a48.761 48.761 0 1 0 0 97.522 48.761 48.761 0 0 0 0-97.522m390.09 0a48.761 48.761 0 1 0 0 97.522 48.761 48.761 0 0 0 0-97.522m390.088 0a48.761 48.761 0 1 0 0 97.522 48.761 48.761 0 0 0 0-97.522M536.472 97.522a97.522 97.522 0 1 0 0 195.045 97.522 97.522 0 0 0 0-195.045" data-spm-anchor-id="a313x.search_index.0.i0.687c3a81ryayoM"/></svg>
