<svg xmlns="http://www.w3.org/2000/svg" width="200" height="200" class="icon" viewBox="0 0 1024 1024"><path d="M128 170.667A42.667 42.667 0 0 1 170.667 128h682.666A42.667 42.667 0 0 1 896 170.667v113.792a42.67 42.67 0 0 1-15.36 32.768l-212.181 176.81v55.894a42.667 42.667 0 1 1-85.334 0v-75.904a42.67 42.67 0 0 1 15.36-32.768l212.182-176.811v-51.115H213.333v51.115l212.224 176.853a42.67 42.67 0 0 1 15.36 32.768v379.264a42.667 42.667 0 1 1-85.333 0V494.08L143.36 317.184A42.67 42.67 0 0 1 128 284.459zm455.083 682.666a42.667 42.667 0 0 1 42.666-42.666h189.654a42.667 42.667 0 0 1 0 85.333H625.749a42.667 42.667 0 0 1-42.666-42.667"/><path d="M583.083 701.653a42.667 42.667 0 0 1 42.666-42.666h189.654a42.667 42.667 0 0 1 0 85.333H625.749a42.667 42.667 0 0 1-42.666-42.667"/></svg>
