<svg xmlns="http://www.w3.org/2000/svg" width="200" height="200" class="icon" viewBox="0 0 1024 1024"><path d="M76.8 947.2V140.8C76.8 62.976 139.776 0 217.6 0h332.8c77.824 0 140.8 62.976 140.8 140.8v78.848l179.712 93.184c46.592 24.064 76.288 72.192 76.288 124.928V947.2h38.4c20.992 0 38.4 17.408 38.4 38.4s-17.408 38.4-38.4 38.4H38.4C17.408 1024 0 1006.592 0 985.6s17.408-38.4 38.4-38.4zm614.4 0h179.2V438.272c0-24.064-13.312-46.08-34.304-56.832L691.2 306.176zm-537.6 0h460.8V140.8c0-16.896-6.656-33.28-18.944-45.056C583.68 83.968 567.296 76.8 550.4 76.8H217.6c-16.896 0-33.28 6.656-45.056 18.944-12.288 11.776-18.944 28.16-18.944 45.056zm0 0"/><path d="M330.24 394.24h-81.92c-20.992 0-38.4-17.408-38.4-38.4s17.408-38.4 38.4-38.4h81.92c20.992 0 38.4 17.408 38.4 38.4s-17.408 38.4-38.4 38.4m189.44 0h-81.92c-20.992 0-38.4-17.408-38.4-38.4s17.408-38.4 38.4-38.4h81.92c20.992 0 38.4 17.408 38.4 38.4s-17.408 38.4-38.4 38.4M330.24 512h-81.92c-20.992 0-38.4-17.408-38.4-38.4s17.408-38.4 38.4-38.4h81.92c20.992 0 38.4 17.408 38.4 38.4s-17.408 38.4-38.4 38.4m189.44 0h-81.92c-20.992 0-38.4-17.408-38.4-38.4s17.408-38.4 38.4-38.4h81.92c20.992 0 38.4 17.408 38.4 38.4s-17.408 38.4-38.4 38.4M330.24 629.76h-81.92c-20.992 0-38.4-17.408-38.4-38.4s17.408-38.4 38.4-38.4h81.92c20.992 0 38.4 17.408 38.4 38.4s-17.408 38.4-38.4 38.4m189.44 0h-81.92c-20.992 0-38.4-17.408-38.4-38.4s17.408-38.4 38.4-38.4h81.92c20.992 0 38.4 17.408 38.4 38.4s-17.408 38.4-38.4 38.4M330.24 747.52h-81.92c-20.992 0-38.4-17.408-38.4-38.4s17.408-38.4 38.4-38.4h81.92c20.992 0 38.4 17.408 38.4 38.4s-17.408 38.4-38.4 38.4m189.44 0h-81.92c-20.992 0-38.4-17.408-38.4-38.4s17.408-38.4 38.4-38.4h81.92c20.992 0 38.4 17.408 38.4 38.4s-17.408 38.4-38.4 38.4"/></svg>
