<svg fill="none" xmlns="http://www.w3.org/2000/svg" viewBox="0 0 20 20">
  <path fill-rule="evenodd" clip-rule="evenodd" d="M3.75 3.3a.45.45 0 0 0-.45.45v12.5c0 .248.201.45.45.45h12.5a.45.45 0 0 0 .45-.45V5.85L13.969 3.3H3.75Zm-2.05.45A2.05 2.05 0 0 1 3.75 1.7h10.534a.8.8 0 0 1 .546.215l3.216 3.003a.8.8 0 0 1 .254.585V16.25a2.05 2.05 0 0 1-2.05 2.05H3.75a2.05 2.05 0 0 1-2.05-2.05V3.75Z" fill="currentColor"/>
  <path fill-rule="evenodd" clip-rule="evenodd" d="M11 2.5H9.4l-.003 2.4H6.6V2.5H5v3.692c0 .17.268.308.6.308h4.796c.33 0 .599-.138.599-.308L11 2.5Z" fill="currentColor"/>
  <path fill-rule="evenodd" clip-rule="evenodd" d="M2.95 2.5a.8.8 0 0 1 .8-.8h10.534a.8.8 0 1 1 0 1.6H3.75a.8.8 0 0 1-.8-.8ZM5.032 10.834a.8.8 0 0 1 .8-.8h8.333a.8.8 0 0 1 0 1.6H5.832a.8.8 0 0 1-.8-.8ZM5.032 14.166a.8.8 0 0 1 .8-.8h4.17a.8.8 0 0 1 0 1.6h-4.17a.8.8 0 0 1-.8-.8Z" fill="currentColor"/>
</svg>
