<svg xmlns="http://www.w3.org/2000/svg" width="200" height="200" class="icon" viewBox="0 0 1024 1024"><path d="M727.04 1024q-81.92 0-150.187-40.96T467.627 873.813t-40.96-148.48 40.96-148.48 109.226-109.226 148.48-40.96 148.48 40.96T983.04 576.853t40.96 148.48-40.96 148.48T873.813 983.04 727.04 1024m0-512q-88.747 0-151.893 63.147T512 725.333t63.147 150.187 150.186 63.147T875.52 875.52t63.147-150.187-63.147-150.186T727.04 512m71.68 286.72q10.24-13.653 10.24-30.72t-10.24-30.72L768 706.56v-68.267q0-17.066-11.947-29.013t-30.72-11.947-30.72 11.947-11.946 32.427v81.92q0 20.48 13.653 30.72l40.96 44.373q13.653 10.24 30.72 10.24t30.72-10.24M85.333 983.04v-3.413q0-119.467 73.387-215.04t192.853-126.294q17.067-3.413 25.6-18.773t5.12-32.427-18.773-25.6-32.427-5.12q-95.573 23.894-170.666 85.334T42.667 791.893 0 979.627q0 20.48 11.947 32.426T42.667 1024t30.72-11.947 11.946-29.013m276.48-515.413q-64.853 3.413-117.76-29.014t-85.333-87.04-32.427-117.76 32.427-117.76 85.333-85.333T361.813 0t117.76 30.72 85.334 85.333q32.426 54.614 32.426 117.76t-32.426 117.76-85.334 85.334-117.76 30.72m0-382.294q-61.44 0-105.813 44.374T211.627 235.52 256 339.627t105.813 42.666 105.814-42.666T512 235.52t-44.373-105.813-105.814-44.374"/></svg>
