<svg fill="none" xmlns="http://www.w3.org/2000/svg" viewBox="0 0 20 20">
  <path fill-rule="evenodd" clip-rule="evenodd" d="M2.501 3.983a.183.183 0 0 0-.183.183v11.667c0 .101.082.183.183.183h15a.183.183 0 0 0 .184-.183V4.166a.183.183 0 0 0-.184-.183h-15Zm-1.483.183c0-.819.664-1.483 1.483-1.483h15c.82 0 1.484.664 1.484 1.483v11.667c0 .82-.665 1.483-1.484 1.483h-15c-.819 0-1.483-.664-1.483-1.483V4.166Z" fill="currentColor"/>
  <path fill-rule="evenodd" clip-rule="evenodd" d="M2.501 3.983a.183.183 0 0 0-.183.183v1.85h15.367v-1.85a.183.183 0 0 0-.184-.183h-15Zm-1.483.183c0-.819.664-1.483 1.483-1.483h15c.82 0 1.484.664 1.484 1.483v2.5a.65.65 0 0 1-.65.65H1.668a.65.65 0 0 1-.65-.65v-2.5ZM10.532 8.944a.65.65 0 0 1 .523.755l-.833 4.584a.65.65 0 1 1-1.28-.233l.834-4.583a.65.65 0 0 1 .756-.524ZM12.419 9.167a.65.65 0 0 1 .915-.083l2.5 2.083a.65.65 0 0 1 .044.959l-2.5 2.5a.65.65 0 0 1-.92-.92l1.997-1.996-1.953-1.628a.65.65 0 0 1-.083-.915ZM7.581 9.167a.65.65 0 0 1-.083.915L5.545 11.71l1.997 1.997a.65.65 0 0 1-.92.919l-2.5-2.5a.65.65 0 0 1 .044-.959l2.5-2.083a.65.65 0 0 1 .915.083Z" fill="currentColor"/>
</svg>
