<svg xmlns="http://www.w3.org/2000/svg" width="200" height="200" class="icon" viewBox="0 0 1024 1024"><path d="M557.816 319.591a192.562 192.562 0 0 1 0 385.073H434.158V319.591H557.97m0-71.508H407.598a45.255 45.255 0 0 0-44.948 45.152V731.02a45.255 45.255 0 0 0 44.948 45.357h150.218a264.07 264.07 0 0 0 0-528.09zm-318.774-.204a37.133 37.133 0 0 0-37.032 37.03v449.942a37.082 37.082 0 0 0 74.114 0V284.91a37.184 37.184 0 0 0-37.082-37.031z"/><path d="M893.855 71.508a58.535 58.535 0 0 1 58.483 58.484v763.863a58.484 58.484 0 0 1-58.483 58.637H129.992a58.535 58.535 0 0 1-58.484-58.637V129.992a58.586 58.586 0 0 1 58.484-58.484h763.863m0-71.508H129.992A130.35 130.35 0 0 0 0 129.992v763.863a130.35 130.35 0 0 0 129.992 129.992h763.863A130.35 130.35 0 0 0 1024 893.855V129.992A130.35 130.35 0 0 0 893.855 0z"/></svg>