<svg fill="none" xmlns="http://www.w3.org/2000/svg" viewBox="0 0 20 20">
  <path d="M18.332 12.5h-1.667V10a.833.833 0 0 0-.833-.833h-5V7.501h1.667a.833.833 0 0 0 .833-.834v-5a.834.834 0 0 0-.833-.833h-5a.833.833 0 0 0-.834.833v5a.833.833 0 0 0 .834.834h1.666v1.666h-5a.833.833 0 0 0-.833.834v2.5H1.665a.833.833 0 0 0-.833.833v5a.833.833 0 0 0 .833.833h5a.833.833 0 0 0 .834-.833v-5a.833.833 0 0 0-.834-.833H5v-1.667h10v1.667h-1.667a.833.833 0 0 0-.833.833v5a.833.833 0 0 0 .833.833h5a.833.833 0 0 0 .833-.833v-5a.833.833 0 0 0-.833-.833Zm-12.5 1.667v3.334H2.499v-3.334h3.333Zm2.5-8.333V2.501h3.333v3.333H8.332Zm9.167 11.667h-3.334v-3.334H17.5v3.334Z" fill="currentColor"/>
</svg>
