<svg fill="none" xmlns="http://www.w3.org/2000/svg" viewBox="0 0 20 20">
  <path fill-rule="evenodd" clip-rule="evenodd" d="M7.56 1.197a.8.8 0 0 1 .926.407 1.7 1.7 0 0 0 3.031 0 .8.8 0 0 1 .926-.407 9.12 9.12 0 0 1 3.776 2.113.8.8 0 0 1 .173.94 1.7 1.7 0 0 0 1.526 2.45h.024a.8.8 0 0 1 .774.56 9.174 9.174 0 0 1 .233 4.579.8.8 0 0 1-.862.636 1.7 1.7 0 0 0-1.47 2.787.8.8 0 0 1-.034 1.07 9.131 9.131 0 0 1-3.972 2.423.8.8 0 0 1-.99-.524 1.701 1.701 0 0 0-3.24 0 .8.8 0 0 1-.99.524 9.131 9.131 0 0 1-3.971-2.422.8.8 0 0 1-.035-1.071 1.7 1.7 0 0 0-1.47-2.787.8.8 0 0 1-.862-.636 9.17 9.17 0 0 1 .233-4.58.8.8 0 0 1 .775-.56h.024A1.7 1.7 0 0 0 3.61 4.25a.8.8 0 0 1 .172-.94A9.12 9.12 0 0 1 7.56 1.198Zm-2.29 2.94a3.303 3.303 0 0 1-2.597 4.11 7.556 7.556 0 0 0-.152 2.648 3.3 3.3 0 0 1 2.508 4.764 7.534 7.534 0 0 0 2.176 1.338A3.297 3.297 0 0 1 10 15.45c1.18 0 2.213.618 2.797 1.547a7.535 7.535 0 0 0 2.176-1.338 3.3 3.3 0 0 1 2.508-4.764 7.62 7.62 0 0 0-.152-2.647 3.301 3.301 0 0 1-2.598-4.111 7.521 7.521 0 0 0-2.169-1.224 3.294 3.294 0 0 1-2.562 1.22 3.294 3.294 0 0 1-2.562-1.22A7.52 7.52 0 0 0 5.27 4.137Z" fill="currentColor"/>
  <path fill-rule="evenodd" clip-rule="evenodd" d="M6.282 10a3.717 3.717 0 1 1 7.433 0 3.717 3.717 0 0 1-7.433 0Zm3.717-2.117a2.117 2.117 0 1 0 0 4.233 2.117 2.117 0 0 0 0-4.233Z" fill="currentColor"/>
</svg>
