<svg width="20" height="20" viewBox="0 0 20 20" fill="none" xmlns="http://www.w3.org/2000/svg">
  <path fill-rule="evenodd" clip-rule="evenodd" d="M2.99998 3.35001C2.64099 3.35001 2.34998 3.64102 2.34998 4.00001V7.00001C2.34998 7.35899 2.64099 7.65001 2.99998 7.65001H16C16.359 7.65001 16.65 7.35899 16.65 7.00001V4.00001C16.65 3.64102 16.359 3.35001 16 3.35001H2.99998ZM10 6.35001H15.35V4.65001H10V6.35001ZM2.99998 8.35001C2.64099 8.35001 2.34998 8.64102 2.34998 9.00001V12C2.34998 12.359 2.64099 12.65 2.99998 12.65H16C16.359 12.65 16.65 12.359 16.65 12V9.00001C16.65 8.64102 16.359 8.35001 16 8.35001H2.99998ZM10 11.35V9.65001H15.35V11.35H10ZM2.34998 14C2.34998 13.641 2.64099 13.35 2.99998 13.35H16C16.359 13.35 16.65 13.641 16.65 14V17C16.65 17.359 16.359 17.65 16 17.65H2.99998C2.64099 17.65 2.34998 17.359 2.34998 17V14ZM10 14.65V16.35H15.35V14.65H10Z" fill="currentColor"/>
</svg>
