<svg id="图层_1" data-name="图层 1" xmlns="http://www.w3.org/2000/svg" viewBox="0 0 1024 1024"><defs><style>.cls-1{fill:#2b2b2b;}.cls-2{fill:#fff;}.cls-3{fill:#3f3f3f;}</style></defs><rect class="cls-1" x="68.66" y="293.23" width="437.54" height="437.54" rx="38.18"/><path class="cls-2" d="M442.27,446.69c-4.69-11-28.15-12.66-61.75-6.44a6.68,6.68,0,0,1-6.44-2.4A119.89,119.89,0,0,0,353,417.22a2.88,2.88,0,0,0-.27-.22,119,119,0,0,0-190.54,91.38c0,1.18-.06,2.41-.06,3.63a120.93,120.93,0,0,0,1.41,18.41,6.69,6.69,0,0,1-2.46,6.27c-21.51,17-32.56,32.12-28.45,41.75,4.19,9.82,23.35,12.2,51.35,8.17a7.17,7.17,0,0,1,6.48,2.45q3.11,3.65,6.52,7.06A119,119,0,0,0,400,512c0-3-.11-5.93-.32-8.87a7.15,7.15,0,0,1,3-6.38C431.39,476.41,447,457.88,442.27,446.69ZM383,485.92c-2.21,12.76-15.47,16.64-27.33,14.86-10.39-1.55-20.91-9.07-31.64-.5-11.08,8.83-7.86,22.25-6.54,32a65,65,0,0,1,.58,11.58,42.71,42.71,0,0,1-7.9,23.39c-25.75,35.14-102.74,26.57-116.48-18.8-2-6.68-2.31-16.36,2.84-24.48a3.48,3.48,0,0,0-3.85-5.19c-16.5,4.18-26.48,2.45-26.52-10.28,1.7-61.12,52.57-111.42,114.86-111.42,26,0,51.91,7.68,69.19,23.15,0,0,0,0,0,0,11.39,10.54,3.63,27.72-22.58,41.78,13.82-3.43,25.77-4.1,34.13-2.85C375.48,461.22,385.56,471.3,383,485.92Z"/><circle class="cls-2" cx="304.59" cy="465.72" r="9.67" transform="translate(-70.67 54.8) rotate(-9.22)"/><circle class="cls-2" cx="233.89" cy="504.62" r="9.67" transform="translate(-77.81 43.98) rotate(-9.22)"/><path class="cls-3" d="M563.92,580.54v1.2H548.71v9.64h14.44v1.21H548.71v10.57h15.78v1.2H547.41V580.54Z"/><path class="cls-3" d="M579.33,590.48a6.45,6.45,0,0,1,2.23-2.8,5.2,5.2,0,0,1,3.24-1,5.48,5.48,0,0,1,4.27,1.67,6.88,6.88,0,0,1,1.53,4.77v11.27h-1.27V593.19a6.05,6.05,0,0,0-1.1-3.94,4.44,4.44,0,0,0-3.67-1.43,4.26,4.26,0,0,0-3.43,1.56,5.41,5.41,0,0,0-1.4,3.84v11.14h-1.31V593.19c0-3.61-1.56-5.37-4.67-5.37a4.34,4.34,0,0,0-3.5,1.7,6,6,0,0,0-1.43,4.1v10.74h-1.3V587.11h1.3v2.94a5.43,5.43,0,0,1,5.1-3.4A5.12,5.12,0,0,1,579.33,590.48Z"/><path class="cls-3" d="M608.17,589.45a10.11,10.11,0,0,1,1.9,6.3,10.29,10.29,0,0,1-1.87,6.31,6.76,6.76,0,0,1-5.74,2.77c-3.06,0-5.17-1.54-6.37-4.54V611h-1.3V587.11H596v4q2-4.5,6.4-4.5A6.76,6.76,0,0,1,608.17,589.45Zm-10.54.73a8.79,8.79,0,0,0-1.57,5.47v.4a8.65,8.65,0,0,0,1.6,5.41,5.55,5.55,0,0,0,4.67,2.2,5.71,5.71,0,0,0,4.84-2.3,9.41,9.41,0,0,0,1.57-5.61,9.17,9.17,0,0,0-1.57-5.53,5.56,5.56,0,0,0-4.81-2.4A5.42,5.42,0,0,0,597.63,590.18Z"/><path class="cls-3" d="M626.82,589.48a9.79,9.79,0,0,1,2,6.27,10,10,0,0,1-2,6.27,7.82,7.82,0,0,1-12,0,9.73,9.73,0,0,1-2-6.27,9.56,9.56,0,0,1,2-6.27,7.79,7.79,0,0,1,12,0Zm-11,.77a8.75,8.75,0,0,0-1.7,5.5,8.63,8.63,0,0,0,1.7,5.47,6,6,0,0,0,5,2.44,6.09,6.09,0,0,0,5-2.44,9.7,9.7,0,0,0,0-11,6,6,0,0,0-5-2.43A6,6,0,0,0,615.78,590.25Z"/><path class="cls-3" d="M631.3,587.11l5.17,15.45,4.7-15.45h1.34l4.7,15.45,5.17-15.45h1.43l-6,17.25h-1.26l-4.71-15.44-4.77,15.44h-1.27l-6-17.25Z"/><path class="cls-3" d="M668.54,589.38a12.49,12.49,0,0,1,1.9,6.77H656a8.4,8.4,0,0,0,1.84,5.44,6,6,0,0,0,4.7,2.07,6.19,6.19,0,0,0,4.2-1.43,7.09,7.09,0,0,0,1.94-3.41h1.36a8.26,8.26,0,0,1-2.26,4.14,7.55,7.55,0,0,1-5.24,1.87,7.05,7.05,0,0,1-5.7-2.51,10.93,10.93,0,0,1-.1-12.94,7.71,7.71,0,0,1,11.77,0Zm-10.57.47A8.55,8.55,0,0,0,656,595h13.08c-.37-4.8-2.54-7.2-6.54-7.2A5.72,5.72,0,0,0,658,589.85Z"/><path class="cls-3" d="M683.19,587v1.37a10,10,0,0,0-2.74-.4,4.74,4.74,0,0,0-4.17,2.43,8.83,8.83,0,0,0-1.33,4.87v9.11h-1.3V587.11H675v3.61a6.38,6.38,0,0,1,2-2.77,5.38,5.38,0,0,1,3.57-1.3A8.53,8.53,0,0,1,683.19,587Z"/><path class="cls-3" d="M709,588.65a6.69,6.69,0,0,1,1.47,4.57v11.14h-1.23v-3.7a10.41,10.41,0,0,1-2.87,2.77,9,9,0,0,1-4.81,1.4,6.19,6.19,0,0,1-4-1.24,4,4,0,0,1-1.64-3.4,4.64,4.64,0,0,1,2.5-4.37,11.72,11.72,0,0,1,6.11-1.27l4.63,0v-1.17c0-3.7-1.83-5.53-5.5-5.53a6.75,6.75,0,0,0-3.8,1,4.59,4.59,0,0,0-2.07,3.07l-1.24-.13a5.62,5.62,0,0,1,2.47-3.8,7.93,7.93,0,0,1,4.67-1.27A6.61,6.61,0,0,1,709,588.65Zm-4.4,7c-4.9,0-7.34,1.57-7.34,4.57a3,3,0,0,0,1.24,2.54,5.52,5.52,0,0,0,3.3.93,7.67,7.67,0,0,0,5.13-2q2.26-1.91,2.27-3.9v-2.17Z"/><path class="cls-3" d="M716.24,580.08v24.28H715V580.08Z"/><path class="cls-3" d="M722.38,580.08v24.28h-1.27V580.08Z"/><path class="cls-3" d="M742.19,587.11H747v1.17h-4.77v12.44a2.89,2.89,0,0,0,.47,1.91,2.13,2.13,0,0,0,1.73.56h2.17v1.17h-2.27a3.25,3.25,0,0,1-2.7-1,4.23,4.23,0,0,1-.67-2.67V588.28H737v-1.17h3.9v-5l1.27-.57Z"/><path class="cls-3" d="M761.74,589.38a12.41,12.41,0,0,1,1.9,6.77h-14.4a8.34,8.34,0,0,0,1.83,5.44,6,6,0,0,0,4.7,2.07,6.2,6.2,0,0,0,4.21-1.43,7.16,7.16,0,0,0,1.93-3.41h1.37A8.27,8.27,0,0,1,761,603a7.53,7.53,0,0,1-5.24,1.87,7.05,7.05,0,0,1-5.7-2.51,10.93,10.93,0,0,1-.1-12.94,7,7,0,0,1,5.77-2.73A6.92,6.92,0,0,1,761.74,589.38Zm-10.57.47a8.54,8.54,0,0,0-1.93,5.17h13.07c-.37-4.8-2.53-7.2-6.54-7.2A5.73,5.73,0,0,0,751.17,589.85Z"/><path class="cls-3" d="M779,588.65a6.74,6.74,0,0,1,1.46,4.57v11.14h-1.23v-3.7a10.28,10.28,0,0,1-2.87,2.77,9,9,0,0,1-4.8,1.4,6.19,6.19,0,0,1-4-1.24,4,4,0,0,1-1.63-3.4,4.64,4.64,0,0,1,2.5-4.37,11.68,11.68,0,0,1,6.1-1.27l4.64,0v-1.17c0-3.7-1.84-5.53-5.51-5.53a6.77,6.77,0,0,0-3.8,1,4.59,4.59,0,0,0-2.07,3.07l-1.23-.13a5.55,5.55,0,0,1,2.47-3.8,7.91,7.91,0,0,1,4.67-1.27A6.64,6.64,0,0,1,779,588.65Zm-4.41,7c-4.9,0-7.33,1.57-7.33,4.57a3,3,0,0,0,1.23,2.54,5.52,5.52,0,0,0,3.3.93,7.72,7.72,0,0,0,5.14-2c1.5-1.27,2.27-2.57,2.27-3.9v-2.17Z"/><path class="cls-3" d="M796.46,590.48a6.47,6.47,0,0,1,2.24-2.8,5.19,5.19,0,0,1,3.23-1,5.46,5.46,0,0,1,4.27,1.67,6.88,6.88,0,0,1,1.54,4.77v11.27h-1.27V593.19a6.05,6.05,0,0,0-1.1-3.94,4.44,4.44,0,0,0-3.67-1.43,4.28,4.28,0,0,0-3.44,1.56,5.45,5.45,0,0,0-1.4,3.84v11.14h-1.3V593.19c0-3.61-1.57-5.37-4.67-5.37a4.33,4.33,0,0,0-3.5,1.7,6,6,0,0,0-1.44,4.1v10.74h-1.3V587.11H786v2.94a5.46,5.46,0,0,1,5.11-3.4A5.11,5.11,0,0,1,796.46,590.48Z"/><path class="cls-3" d="M824.13,591.89h-1.27a4.76,4.76,0,0,0-1.54-2.94,5.86,5.86,0,0,0-3.87-1.13,5.65,5.65,0,0,0-3.4.93,2.58,2.58,0,0,0,.24,4.7,17.73,17.73,0,0,0,3.7,1.27,17.68,17.68,0,0,1,4.5,1.57,3.74,3.74,0,0,1,2.1,3.4c0,3.4-2.23,5.14-6.7,5.14-4.27,0-6.64-1.94-7-5.81h1.3a5,5,0,0,0,1.77,3.61,6.54,6.54,0,0,0,4,1c3.6,0,5.4-1.34,5.4-3.94a2.82,2.82,0,0,0-1.8-2.6,20.87,20.87,0,0,0-4-1.3,16.85,16.85,0,0,1-4.2-1.53,3.59,3.59,0,0,1-1.91-3.21,3.74,3.74,0,0,1,1.81-3.23,7.37,7.37,0,0,1,4.26-1.2C821.39,586.65,823.59,588.38,824.13,591.89Z"/><path class="cls-3" d="M842.64,587.11h4.77v1.17h-4.77v12.44a2.89,2.89,0,0,0,.47,1.91,2.13,2.13,0,0,0,1.73.56H847v1.17h-2.27a3.25,3.25,0,0,1-2.7-1,4.29,4.29,0,0,1-.67-2.67V588.28h-3.9v-1.17h3.9v-5l1.27-.57Z"/><path class="cls-3" d="M862.54,589.48a9.79,9.79,0,0,1,2,6.27,10,10,0,0,1-2,6.27,7.32,7.32,0,0,1-6,2.81,7.23,7.23,0,0,1-6-2.81,9.74,9.74,0,0,1-2-6.27,9.57,9.57,0,0,1,2-6.27,7.16,7.16,0,0,1,6-2.83A7.26,7.26,0,0,1,862.54,589.48Zm-11,.77a8.7,8.7,0,0,0-1.71,5.5,8.57,8.57,0,0,0,1.71,5.47,6,6,0,0,0,5,2.44,6.11,6.11,0,0,0,5-2.44,9.7,9.7,0,0,0,0-11,6,6,0,0,0-5-2.43A5.94,5.94,0,0,0,851.5,590.25Z"/><path class="cls-3" d="M893.89,580.08v24.28h-1.23v-4a6.49,6.49,0,0,1-6.44,4.51,6.73,6.73,0,0,1-5.73-2.77,11.49,11.49,0,0,1,0-12.61,6.65,6.65,0,0,1,5.67-2.8q4.6,0,6.4,4.6V580.08Zm-12.37,10.1a9,9,0,0,0-1.6,5.57,9.07,9.07,0,0,0,1.57,5.57,5.68,5.68,0,0,0,4.83,2.34,5.6,5.6,0,0,0,4.74-2.27,8.79,8.79,0,0,0,1.57-5.37v-.43a9,9,0,0,0-1.6-5.51,6,6,0,0,0-9.51.1Z"/><path class="cls-3" d="M911.05,589.38a12.41,12.41,0,0,1,1.9,6.77H898.54a8.4,8.4,0,0,0,1.84,5.44,6,6,0,0,0,4.7,2.07,6.15,6.15,0,0,0,4.2-1.43,7.09,7.09,0,0,0,1.94-3.41h1.37a8.27,8.27,0,0,1-2.27,4.14,7.53,7.53,0,0,1-5.24,1.87,7.05,7.05,0,0,1-5.7-2.51,10.93,10.93,0,0,1-.1-12.94,7.71,7.71,0,0,1,11.77,0Zm-10.57.47a8.61,8.61,0,0,0-1.94,5.17h13.08c-.37-4.8-2.54-7.2-6.54-7.2A5.73,5.73,0,0,0,900.48,589.85Z"/><path class="cls-3" d="M917.84,580.08v24.28h-1.27V580.08Z"/><path class="cls-3" d="M924.46,581.64a1.18,1.18,0,0,1,.4.94,1.23,1.23,0,0,1-.4.93,1.26,1.26,0,0,1-.93.4,1.18,1.18,0,0,1-.94-.4,1.26,1.26,0,0,1-.4-.93,1.37,1.37,0,0,1,1.34-1.34A1.3,1.3,0,0,1,924.46,581.64Zm-.3,5.47v17.25h-1.27V587.11Z"/><path class="cls-3" d="M928.49,587.11l5.93,15.58,5.94-15.58h1.44l-6.68,17.25h-1.4l-6.67-17.25Z"/><path class="cls-3" d="M956.4,589.38a12.58,12.58,0,0,1,1.9,6.77H943.89a8.45,8.45,0,0,0,1.83,5.44,6,6,0,0,0,4.71,2.07,6.19,6.19,0,0,0,4.2-1.43,7.08,7.08,0,0,0,1.93-3.41h1.37a8.27,8.27,0,0,1-2.27,4.14,7.51,7.51,0,0,1-5.23,1.87,7.07,7.07,0,0,1-5.71-2.51,10.93,10.93,0,0,1-.1-12.94,7.72,7.72,0,0,1,11.78,0Zm-10.58.47a8.61,8.61,0,0,0-1.93,5.17H957q-.54-7.2-6.53-7.2A5.75,5.75,0,0,0,945.82,589.85Z"/><path class="cls-3" d="M971,587v1.37a9.91,9.91,0,0,0-2.73-.4,4.72,4.72,0,0,0-4.17,2.43,8.84,8.84,0,0,0-1.34,4.87v9.11h-1.3V587.11h1.3v3.61a6.46,6.46,0,0,1,2-2.77,5.42,5.42,0,0,1,3.57-1.3A8.49,8.49,0,0,1,971,587Z"/><path class="cls-3" d="M972.65,602.39a3.25,3.25,0,0,1,.4,1.74,4.64,4.64,0,0,1-1,3,4.54,4.54,0,0,1-2.56,1.56v-1a3.6,3.6,0,0,0,1.86-1.27,3.39,3.39,0,0,0,.6-2,2.75,2.75,0,0,1-.66.07,1.3,1.3,0,0,1-.94-.4,1.35,1.35,0,0,1-.4-.94,1.3,1.3,0,0,1,.4-1,1.16,1.16,0,0,1,1-.37A1.56,1.56,0,0,1,972.65,602.39Z"/><path class="cls-3" d="M559.05,630.1a6.56,6.56,0,0,1,2.3,4.53h-1.27a5.39,5.39,0,0,0-1.86-3.63,6.32,6.32,0,0,0-4-1.24,5.67,5.67,0,0,0-4.77,2.34,9.15,9.15,0,0,0-1.7,5.77,8.73,8.73,0,0,0,1.63,5.57,5.71,5.71,0,0,0,4.81,2.17c3.43,0,5.43-1.81,6-5.37h1.27a7.91,7.91,0,0,1-2.4,4.86,7.17,7.17,0,0,1-4.9,1.67,7,7,0,0,1-5.84-2.6,9.83,9.83,0,0,1-1.9-6.3,10.25,10.25,0,0,1,2-6.51,6.79,6.79,0,0,1,5.77-2.77A7.54,7.54,0,0,1,559.05,630.1Z"/><path class="cls-3" d="M578,631.43a9.74,9.74,0,0,1,2,6.27,9.91,9.91,0,0,1-2,6.27,7.3,7.3,0,0,1-6,2.8,7.21,7.21,0,0,1-6-2.8,9.74,9.74,0,0,1-2-6.27,9.57,9.57,0,0,1,2-6.27,7.16,7.16,0,0,1,6-2.84A7.25,7.25,0,0,1,578,631.43Zm-11,.77a9.7,9.7,0,0,0,0,11,6.06,6.06,0,0,0,5,2.44,6.14,6.14,0,0,0,5-2.44,9.7,9.7,0,0,0,0-11,6,6,0,0,0-5-2.44A6,6,0,0,0,566.91,632.2Z"/><path class="cls-3" d="M596.89,635.73v10.58h-1.31V635.77q0-6-5.27-6a5.08,5.08,0,0,0-3.9,1.7,6.42,6.42,0,0,0-1.7,4.41v10.44h-1.3V629.06h1.3v3.14a6.56,6.56,0,0,1,2.34-2.64,6.22,6.22,0,0,1,3.46-1C594.75,628.59,596.89,631,596.89,635.73Z"/><path class="cls-3" d="M604,629.06h4.77v1.17H604v12.44a2.81,2.81,0,0,0,.47,1.9,2.07,2.07,0,0,0,1.73.57h2.17v1.17h-2.27a3.28,3.28,0,0,1-2.7-1,4.24,4.24,0,0,1-.67-2.67V630.23h-3.9v-1.17h3.9v-5l1.27-.57Z"/><path class="cls-3" d="M621.09,628.93v1.37a10,10,0,0,0-2.74-.41,4.76,4.76,0,0,0-4.17,2.44,8.83,8.83,0,0,0-1.33,4.87v9.11h-1.3V629.06h1.3v3.6a6.5,6.5,0,0,1,2-2.77,5.47,5.47,0,0,1,3.57-1.3A8.21,8.21,0,0,1,621.09,628.93Z"/><path class="cls-3" d="M635.83,631.43a9.79,9.79,0,0,1,2,6.27,10,10,0,0,1-2,6.27,7.84,7.84,0,0,1-12,0,9.73,9.73,0,0,1-2-6.27,9.56,9.56,0,0,1,2-6.27,7.77,7.77,0,0,1,12,0Zm-11,.77a9.7,9.7,0,0,0,0,11,6,6,0,0,0,5,2.44,6.11,6.11,0,0,0,5-2.44,9.7,9.7,0,0,0,0-11,6,6,0,0,0-5-2.44A5.93,5.93,0,0,0,624.79,632.2Z"/><path class="cls-3" d="M643,622v24.29h-1.27V622Z"/><path class="cls-3" d="M650.12,644.34a3.14,3.14,0,0,1,.4,1.73,4.6,4.6,0,0,1-1,3,4.54,4.54,0,0,1-2.57,1.57v-1a3.63,3.63,0,0,0,1.87-1.27,3.41,3.41,0,0,0,.6-2,3,3,0,0,1-.67.06,1.26,1.26,0,0,1-.93-.4,1.41,1.41,0,0,1,0-2,1.17,1.17,0,0,1,1-.36A1.51,1.51,0,0,1,650.12,644.34Z"/><path class="cls-3" d="M666.84,631.33a12.49,12.49,0,0,1,1.9,6.77H654.33a8.42,8.42,0,0,0,1.84,5.44,6,6,0,0,0,4.7,2.07,6.18,6.18,0,0,0,4.2-1.44,7,7,0,0,0,1.94-3.4h1.36a8.18,8.18,0,0,1-2.26,4.13,7.51,7.51,0,0,1-5.24,1.87,7,7,0,0,1-5.7-2.5,10.93,10.93,0,0,1-.1-12.94,7.69,7.69,0,0,1,11.77,0Zm-10.57.47a8.59,8.59,0,0,0-1.94,5.17h13.08c-.37-4.81-2.54-7.21-6.54-7.21A5.73,5.73,0,0,0,656.27,631.8Z"/><path class="cls-3" d="M671.43,629.06l5.47,7.17,5.47-7.17h1.57l-6.27,8.17,7,9.08h-1.6l-6.17-8.11-6.2,8.11h-1.57l7-9.08-6.3-8.17Z"/><path class="cls-3" d="M700.45,631.4a10.09,10.09,0,0,1,1.9,6.3,10.24,10.24,0,0,1-1.87,6.3,6.74,6.74,0,0,1-5.74,2.77c-3.06,0-5.17-1.53-6.37-4.53v10.67h-1.3V629.06h1.24v4c1.3-3,3.43-4.51,6.4-4.51A6.77,6.77,0,0,1,700.45,631.4Zm-10.54.73a8.79,8.79,0,0,0-1.57,5.47v.4a8.64,8.64,0,0,0,1.6,5.4,5.56,5.56,0,0,0,4.67,2.21,5.69,5.69,0,0,0,4.84-2.31,9.37,9.37,0,0,0,1.56-5.6,9.18,9.18,0,0,0-1.56-5.54,5.56,5.56,0,0,0-4.81-2.4A5.43,5.43,0,0,0,689.91,632.13Z"/><path class="cls-3" d="M718.74,631.33a12.49,12.49,0,0,1,1.9,6.77H706.23a8.42,8.42,0,0,0,1.84,5.44,6,6,0,0,0,4.7,2.07,6.2,6.2,0,0,0,4.2-1.44,7,7,0,0,0,1.94-3.4h1.36A8.18,8.18,0,0,1,718,644.9a7.51,7.51,0,0,1-5.24,1.87,7.08,7.08,0,0,1-5.71-2.5,11,11,0,0,1-.1-12.94,7,7,0,0,1,5.78-2.74A6.92,6.92,0,0,1,718.74,631.33Zm-10.57.47a8.53,8.53,0,0,0-1.94,5.17h13.08c-.37-4.81-2.54-7.21-6.54-7.21A5.73,5.73,0,0,0,708.17,631.8Z"/><path class="cls-3" d="M733.38,628.93v1.37a9.88,9.88,0,0,0-2.73-.41,4.73,4.73,0,0,0-4.17,2.44,8.83,8.83,0,0,0-1.33,4.87v9.11h-1.31V629.06h1.31v3.6a6.5,6.5,0,0,1,2-2.77,5.43,5.43,0,0,1,3.57-1.3A8.11,8.11,0,0,1,733.38,628.93Z"/><path class="cls-3" d="M737.88,623.59a1.14,1.14,0,0,1,.4.93,1.26,1.26,0,0,1-.4.94,1.23,1.23,0,0,1-.93.4,1.18,1.18,0,0,1-.94-.4,1.3,1.3,0,0,1-.4-.94,1.37,1.37,0,0,1,1.34-1.33A1.23,1.23,0,0,1,737.88,623.59Zm-.3,5.47v17.25h-1.27V629.06Z"/><path class="cls-3" d="M754.11,632.43a6.47,6.47,0,0,1,2.24-2.8,5.2,5.2,0,0,1,3.23-1,5.5,5.5,0,0,1,4.27,1.67,6.88,6.88,0,0,1,1.53,4.77v11.28h-1.26V635.13a6,6,0,0,0-1.1-3.93,4.44,4.44,0,0,0-3.67-1.44,4.26,4.26,0,0,0-3.44,1.57,5.45,5.45,0,0,0-1.4,3.84v11.14h-1.3V635.13c0-3.6-1.57-5.37-4.67-5.37a4.36,4.36,0,0,0-3.5,1.7,6,6,0,0,0-1.44,4.11v10.74h-1.3V629.06h1.3V632a5.47,5.47,0,0,1,5.11-3.41A5.11,5.11,0,0,1,754.11,632.43Z"/><path class="cls-3" d="M782.47,631.33a12.58,12.58,0,0,1,1.9,6.77H770a8.47,8.47,0,0,0,1.83,5.44,6,6,0,0,0,4.71,2.07,6.2,6.2,0,0,0,4.2-1.44,7,7,0,0,0,1.93-3.4H784a8.2,8.2,0,0,1-2.27,4.13,7.46,7.46,0,0,1-5.23,1.87,7.05,7.05,0,0,1-5.71-2.5,10.93,10.93,0,0,1-.1-12.94,7.7,7.7,0,0,1,11.78,0Zm-10.58.47A8.58,8.58,0,0,0,770,637H783q-.54-7.22-6.53-7.21A5.75,5.75,0,0,0,771.89,631.8Z"/><path class="cls-3" d="M801.05,635.73v10.58h-1.3V635.77c0-4-1.77-6-5.27-6a5.09,5.09,0,0,0-3.91,1.7,6.46,6.46,0,0,0-1.7,4.41v10.44h-1.3V629.06h1.3v3.14a6.71,6.71,0,0,1,2.34-2.64,6.23,6.23,0,0,1,3.47-1C798.91,628.59,801.05,631,801.05,635.73Z"/><path class="cls-3" d="M808.17,629.06h4.77v1.17h-4.77v12.44a2.86,2.86,0,0,0,.47,1.9,2.1,2.1,0,0,0,1.73.57h2.17v1.17h-2.27a3.28,3.28,0,0,1-2.7-1,4.24,4.24,0,0,1-.67-2.67V630.23H803v-1.17h3.9v-5l1.27-.57Z"/><path class="cls-3" d="M826.62,629.06l5.17,15.45,4.7-15.45h1.34l4.7,15.45,5.17-15.45h1.43l-6,17.25H841.9l-4.71-15.45-4.77,15.45h-1.26l-6-17.25Z"/><path class="cls-3" d="M853.68,623.59a1.14,1.14,0,0,1,.4.93,1.26,1.26,0,0,1-.4.94,1.23,1.23,0,0,1-.93.4,1.14,1.14,0,0,1-.93-.4,1.26,1.26,0,0,1-.4-.94,1.37,1.37,0,0,1,1.33-1.33A1.23,1.23,0,0,1,853.68,623.59Zm-.3,5.47v17.25h-1.26V629.06Z"/><path class="cls-3" d="M861.67,629.06h4.77v1.17h-4.77v12.44a2.86,2.86,0,0,0,.47,1.9,2.11,2.11,0,0,0,1.74.57H866v1.17h-2.26a3.29,3.29,0,0,1-2.71-1,4.31,4.31,0,0,1-.66-2.67V630.23H856.5v-1.17h3.91v-5l1.26-.57Z"/><path class="cls-3" d="M870.51,622v10.51a7.41,7.41,0,0,1,2.47-2.9,5.8,5.8,0,0,1,3.41-1A6.1,6.1,0,0,1,881,630.3a6.7,6.7,0,0,1,1.71,4.9v11.11h-1.27v-11a5.7,5.7,0,0,0-1.44-4.14,5.14,5.14,0,0,0-3.8-1.4,5,5,0,0,0-3.93,1.87,6.64,6.64,0,0,0-1.71,4.6v10.08h-1.3V622Z"/><path class="cls-3" d="M889.54,644.34a3.23,3.23,0,0,1,.4,1.73,4.5,4.5,0,0,1-3.57,4.54v-1a3.67,3.67,0,0,0,1.87-1.27,3.47,3.47,0,0,0,.59-2,2.91,2.91,0,0,1-.66.06,1.26,1.26,0,0,1-.94-.4,1.41,1.41,0,0,1,0-2,1.19,1.19,0,0,1,1-.36A1.54,1.54,0,0,1,889.54,644.34Z"/><path class="cls-3" d="M559.45,672.54a6.71,6.71,0,0,1,1.47,4.57v11.14h-1.24v-3.7a10.23,10.23,0,0,1-2.86,2.77,9,9,0,0,1-4.81,1.4,6.16,6.16,0,0,1-4-1.24,4,4,0,0,1-1.63-3.4,4.65,4.65,0,0,1,2.5-4.37,11.81,11.81,0,0,1,6.1-1.26l4.64,0v-1.17c0-3.7-1.83-5.53-5.5-5.53a6.7,6.7,0,0,0-3.81,1,4.52,4.52,0,0,0-2.06,3.06l-1.24-.13a5.61,5.61,0,0,1,2.47-3.8,7.91,7.91,0,0,1,4.67-1.27A6.67,6.67,0,0,1,559.45,672.54Zm-4.4,7c-4.91,0-7.34,1.56-7.34,4.57a3,3,0,0,0,1.23,2.53,5.56,5.56,0,0,0,3.3.94,7.73,7.73,0,0,0,5.14-2c1.5-1.26,2.27-2.56,2.27-3.9v-2.17Z"/><path class="cls-3" d="M578.55,677.68v10.57h-1.3V677.71c0-4-1.77-6-5.27-6a5,5,0,0,0-3.9,1.7,6.37,6.37,0,0,0-1.7,4.4v10.44h-1.3V671h1.3v3.13a6.58,6.58,0,0,1,2.33-2.63,6.25,6.25,0,0,1,3.47-1C576.42,670.54,578.55,672.91,578.55,677.68Z"/><path class="cls-3" d="M597.25,664v24.28H596v-4a6.49,6.49,0,0,1-6.44,4.5,6.74,6.74,0,0,1-5.74-2.77,11.49,11.49,0,0,1,0-12.61,6.65,6.65,0,0,1,5.67-2.8q4.61,0,6.41,4.6V664Zm-12.38,10.11a10.58,10.58,0,0,0,0,11.14,5.73,5.73,0,0,0,4.84,2.33,5.59,5.59,0,0,0,4.73-2.27,8.73,8.73,0,0,0,1.57-5.37v-.43a8.93,8.93,0,0,0-1.6-5.5,6,6,0,0,0-9.51.1Z"/><path class="cls-3" d="M624.44,674.38a6.56,6.56,0,0,1,2.23-2.81,5.22,5.22,0,0,1,3.24-1,5.48,5.48,0,0,1,4.27,1.67,6.88,6.88,0,0,1,1.53,4.77v11.27h-1.26V677.08a6,6,0,0,0-1.11-3.94,4.46,4.46,0,0,0-3.66-1.43,4.24,4.24,0,0,0-3.44,1.57,5.44,5.44,0,0,0-1.4,3.83v11.14h-1.3V677.08c0-3.6-1.57-5.37-4.67-5.37a4.33,4.33,0,0,0-3.5,1.7,6,6,0,0,0-1.44,4.1v10.74h-1.3V671h1.3v2.93a5.45,5.45,0,0,1,5.1-3.4A5.11,5.11,0,0,1,624.44,674.38Z"/><path class="cls-3" d="M653.16,673.38a9.75,9.75,0,0,1,2,6.27,10,10,0,0,1-2,6.27,7.3,7.3,0,0,1-6,2.8,7.22,7.22,0,0,1-6-2.8,9.77,9.77,0,0,1-2-6.27,9.53,9.53,0,0,1,2-6.27,7.15,7.15,0,0,1,6-2.84A7.23,7.23,0,0,1,653.16,673.38Zm-11,.76a8.7,8.7,0,0,0-1.7,5.51,8.61,8.61,0,0,0,1.7,5.47,6,6,0,0,0,5,2.43,6.13,6.13,0,0,0,5-2.43,9.71,9.71,0,0,0,0-11,6,6,0,0,0-5-2.43A5.94,5.94,0,0,0,642.12,674.14Z"/><path class="cls-3" d="M672.09,677.68v10.57h-1.3V677.71c0-4-1.77-6-5.27-6a5,5,0,0,0-3.9,1.7,6.42,6.42,0,0,0-1.71,4.4v10.44h-1.3V671h1.3v3.13a6.68,6.68,0,0,1,2.34-2.63,6.23,6.23,0,0,1,3.47-1C670,670.54,672.09,672.91,672.09,677.68Z"/><path class="cls-3" d="M689.14,673.28a12.52,12.52,0,0,1,1.9,6.77H676.63a8.44,8.44,0,0,0,1.83,5.43,6,6,0,0,0,4.71,2.07,6.19,6.19,0,0,0,4.2-1.43,7,7,0,0,0,1.93-3.4h1.37a8.24,8.24,0,0,1-2.27,4.13,7.48,7.48,0,0,1-5.23,1.87,7.05,7.05,0,0,1-5.71-2.5,10.93,10.93,0,0,1-.1-12.94,7.7,7.7,0,0,1,11.78,0Zm-10.58.46a8.63,8.63,0,0,0-1.93,5.17H689.7q-.54-7.2-6.53-7.2A5.77,5.77,0,0,0,678.56,673.74Z"/><path class="cls-3" d="M697.11,671h4.77v1.17h-4.77v12.44a2.87,2.87,0,0,0,.46,1.9,2.11,2.11,0,0,0,1.74.57h2.17v1.16h-2.27a3.25,3.25,0,0,1-2.7-1,4.21,4.21,0,0,1-.67-2.66V672.18h-3.9V671h3.9v-5l1.27-.56Z"/><path class="cls-3" d="M706.76,665.54a1.14,1.14,0,0,1,.4.93,1.23,1.23,0,0,1-.4.93,1.27,1.27,0,0,1-.94.41,1.15,1.15,0,0,1-.93-.41,1.23,1.23,0,0,1-.4-.93,1.37,1.37,0,0,1,1.33-1.33A1.26,1.26,0,0,1,706.76,665.54Zm-.3,5.47v17.24h-1.27V671Z"/><path class="cls-3" d="M723,671v1.17l-11.7,14.91h12.24v1.16H709.67v-1.16l11.75-14.91H710V671Z"/><path class="cls-3" d="M738.31,673.28a12.52,12.52,0,0,1,1.9,6.77H725.8a8.33,8.33,0,0,0,1.83,5.43,6,6,0,0,0,4.7,2.07,6.2,6.2,0,0,0,4.21-1.43,7,7,0,0,0,1.93-3.4h1.37a8.24,8.24,0,0,1-2.27,4.13,7.49,7.49,0,0,1-5.24,1.87,7,7,0,0,1-5.7-2.5,10.93,10.93,0,0,1-.1-12.94,7.7,7.7,0,0,1,11.78,0Zm-10.58.46a8.57,8.57,0,0,0-1.93,5.17h13.07c-.36-4.8-2.53-7.2-6.54-7.2A5.76,5.76,0,0,0,727.73,673.74Z"/><path class="cls-3" d="M758.26,671H763v1.17h-4.77v12.44a2.87,2.87,0,0,0,.46,1.9,2.11,2.11,0,0,0,1.74.57h2.17v1.16h-2.27a3.25,3.25,0,0,1-2.7-1,4.21,4.21,0,0,1-.67-2.66V672.18h-3.9V671H757v-5l1.27-.56Z"/><path class="cls-3" d="M767.1,664v10.51a7.21,7.21,0,0,1,2.47-2.91,5.76,5.76,0,0,1,3.4-1,6.17,6.17,0,0,1,4.57,1.7,6.76,6.76,0,0,1,1.7,4.9v11.11H778v-11a5.72,5.72,0,0,0-1.43-4.13,5.18,5.18,0,0,0-3.81-1.4,5,5,0,0,0-3.93,1.87,6.61,6.61,0,0,0-1.7,4.6v10.07h-1.3V664Z"/><path class="cls-3" d="M796.3,673.28a12.35,12.35,0,0,1,1.9,6.77H783.79a8.39,8.39,0,0,0,1.84,5.43,6,6,0,0,0,4.7,2.07,6.15,6.15,0,0,0,4.2-1.43,7.06,7.06,0,0,0,1.94-3.4h1.37a8.24,8.24,0,0,1-2.27,4.13,7.49,7.49,0,0,1-5.24,1.87,7,7,0,0,1-5.7-2.5,10.93,10.93,0,0,1-.1-12.94,7.69,7.69,0,0,1,11.77,0Zm-10.57.46a8.64,8.64,0,0,0-1.94,5.17h13.08c-.37-4.8-2.54-7.2-6.54-7.2A5.76,5.76,0,0,0,785.73,673.74Z"/><path class="cls-3" d="M803.47,665.54a1.14,1.14,0,0,1,.4.93,1.23,1.23,0,0,1-.4.93,1.27,1.27,0,0,1-.94.41,1.15,1.15,0,0,1-.93-.41,1.23,1.23,0,0,1-.4-.93,1.37,1.37,0,0,1,1.33-1.33A1.26,1.26,0,0,1,803.47,665.54Zm-.3,5.47v17.24H801.9V671Z"/><path class="cls-3" d="M817.43,670.87v1.37a10.38,10.38,0,0,0-2.74-.4,4.74,4.74,0,0,0-4.17,2.44,8.81,8.81,0,0,0-1.33,4.87v9.1h-1.3V671h1.3v3.6a6.5,6.5,0,0,1,2-2.77,5.4,5.4,0,0,1,3.57-1.3A8.53,8.53,0,0,1,817.43,670.87Z"/><path class="cls-3" d="M843.12,675.78h-1.27a4.79,4.79,0,0,0-1.54-2.94,5.86,5.86,0,0,0-3.87-1.13,5.65,5.65,0,0,0-3.4.93,2.59,2.59,0,0,0,.24,4.71,17.87,17.87,0,0,0,3.7,1.26,18.08,18.08,0,0,1,4.5,1.57,3.74,3.74,0,0,1,2.1,3.4c0,3.4-2.23,5.14-6.7,5.14-4.27,0-6.64-1.94-7-5.8h1.3a5,5,0,0,0,1.77,3.6,6.54,6.54,0,0,0,4,1c3.6,0,5.4-1.33,5.4-3.93a2.82,2.82,0,0,0-1.8-2.61,21.64,21.64,0,0,0-4-1.3,16.85,16.85,0,0,1-4.2-1.53,3.58,3.58,0,0,1-1.91-3.2,3.74,3.74,0,0,1,1.8-3.24,7.42,7.42,0,0,1,4.27-1.2C840.38,670.54,842.58,672.27,843.12,675.78Z"/><path class="cls-3" d="M860,673.38a9.75,9.75,0,0,1,2,6.27,10,10,0,0,1-2,6.27,7.3,7.3,0,0,1-6,2.8,7.22,7.22,0,0,1-6-2.8,9.77,9.77,0,0,1-2-6.27,9.53,9.53,0,0,1,2-6.27,7.15,7.15,0,0,1,6-2.84A7.23,7.23,0,0,1,860,673.38Zm-11,.76a8.7,8.7,0,0,0-1.7,5.51,8.61,8.61,0,0,0,1.7,5.47,6,6,0,0,0,5,2.43,6.12,6.12,0,0,0,5-2.43,9.71,9.71,0,0,0,0-11,6,6,0,0,0-5-2.43A5.94,5.94,0,0,0,849,674.14Z"/><path class="cls-3" d="M874.66,664.44v1.2h-2.81a2.81,2.81,0,0,0-2.23.76,3.63,3.63,0,0,0-.67,2.51V671h5.47v1.17H869v16.07h-1.26V672.18h-4.94V671h4.94v-2.1a4.75,4.75,0,0,1,1-3.27,3.9,3.9,0,0,1,3.14-1.2Z"/><path class="cls-3" d="M881.37,671h4.77v1.17h-4.77v12.44a2.87,2.87,0,0,0,.46,1.9,2.11,2.11,0,0,0,1.74.57h2.17v1.16h-2.27a3.25,3.25,0,0,1-2.7-1,4.21,4.21,0,0,1-.67-2.66V672.18h-3.9V671h3.9v-5l1.27-.56Z"/><path class="cls-3" d="M889.39,671l5.17,15.44,4.7-15.44h1.34l4.7,15.44L910.47,671h1.44l-6,17.24h-1.26L900,672.81l-4.77,15.44h-1.26L888,671Z"/><path class="cls-3" d="M926.06,672.54a6.71,6.71,0,0,1,1.47,4.57v11.14h-1.24v-3.7a10.23,10.23,0,0,1-2.86,2.77,9,9,0,0,1-4.81,1.4,6.16,6.16,0,0,1-4-1.24,4,4,0,0,1-1.63-3.4,4.65,4.65,0,0,1,2.5-4.37,11.81,11.81,0,0,1,6.1-1.26l4.64,0v-1.17c0-3.7-1.83-5.53-5.5-5.53a6.7,6.7,0,0,0-3.81,1,4.52,4.52,0,0,0-2.06,3.06l-1.24-.13a5.64,5.64,0,0,1,2.47-3.8,7.91,7.91,0,0,1,4.67-1.27A6.67,6.67,0,0,1,926.06,672.54Zm-4.4,7c-4.91,0-7.34,1.56-7.34,4.57a3,3,0,0,0,1.23,2.53,5.57,5.57,0,0,0,3.31.94,7.72,7.72,0,0,0,5.13-2c1.5-1.26,2.27-2.56,2.27-3.9v-2.17Z"/><path class="cls-3" d="M941.23,670.87v1.37a10.38,10.38,0,0,0-2.74-.4,4.74,4.74,0,0,0-4.17,2.44,8.81,8.81,0,0,0-1.33,4.87v9.1h-1.3V671H933v3.6a6.5,6.5,0,0,1,2-2.77,5.38,5.38,0,0,1,3.57-1.3A8.53,8.53,0,0,1,941.23,670.87Z"/><path class="cls-3" d="M955.62,673.28a12.44,12.44,0,0,1,1.9,6.77H943.11a8.39,8.39,0,0,0,1.84,5.43,6,6,0,0,0,4.7,2.07,6.17,6.17,0,0,0,4.2-1.43,7.06,7.06,0,0,0,1.94-3.4h1.37a8.31,8.31,0,0,1-2.27,4.13,7.51,7.51,0,0,1-5.24,1.87,7,7,0,0,1-5.7-2.5,10.93,10.93,0,0,1-.1-12.94,7.69,7.69,0,0,1,11.77,0Zm-10.57.46a8.64,8.64,0,0,0-1.94,5.17h13.08c-.37-4.8-2.54-7.2-6.54-7.2A5.75,5.75,0,0,0,945.05,673.74Z"/><path class="cls-3" d="M962.59,686a1.28,1.28,0,0,1,.4,1,1.26,1.26,0,0,1-.4.94,1.37,1.37,0,0,1-1,.4,1.17,1.17,0,0,1-.93-.4,1.26,1.26,0,0,1-.4-.94,1.28,1.28,0,0,1,.4-1,1.17,1.17,0,0,1,.93-.4A1.37,1.37,0,0,1,962.59,686Z"/><path class="cls-1" d="M608.7,346v21.14H574v23.49h31.54v21.14H574.16V456.4H546.57V411.77h-.16V346Z"/><path class="cls-1" d="M652.38,427.85l.16-5.52H678.4q-.31,10.1-.63,14.83-1.57,21.75-30.59,21.76-12.63,0-21.21-4.42t-10-17.34a238.21,238.21,0,0,1-.94-24.45q0-10.08.63-21.45.95-13.08,9.38-18.76t22.16-5.68q12.77,0,21.52,5.76t9.39,18.68q.31,8.52.31,25.24H641.5l.16,16.56c.1,2.83.71,4.91,1.81,6.22a5.08,5.08,0,0,0,4,2,3.56,3.56,0,0,0,3.47-1.82,17.3,17.3,0,0,0,1.26-6.23A53.51,53.51,0,0,0,652.38,427.85Zm-8.59-41.63a6.94,6.94,0,0,0-1.82,4.89q-.32,4.72-.31,10.25h10.72l-.16-10.1q-.15-3.61-1.26-5.12a3.67,3.67,0,0,0-3.15-1.5A5.61,5.61,0,0,0,643.79,386.22Z"/><path class="cls-1" d="M742.35,372.89q8.11,5.76,8.12,21.84V456.4h-27v-6.47q-7.1,7.89-17,7.88-7.72,0-12.77-3.94t-6.47-12a79.48,79.48,0,0,1-.94-12.93q0-10.09,2.05-14.83,4.41-10.1,19.71-13.25,4.73-.94,15.14-3.46v-3.95q0-4.89-1-6.7a3.55,3.55,0,0,0-3.47-1.81,3.86,3.86,0,0,0-3.7,1.81c-.69,1.21-1.08,3.76-1.19,7.65l-25.07,2.36q0-14.5,8-22.07t22.87-7.57Q734.22,367.14,742.35,372.89Zm-19,64.11V411.61a25.82,25.82,0,0,0-5.21,2.05,8.51,8.51,0,0,0-4.57,6.94c-.21,2.1-.32,3.89-.32,5.36a51.87,51.87,0,0,0,.63,7.88c.63,3.16,2.42,4.73,5.37,4.73A5.56,5.56,0,0,0,723.35,437Z"/><path class="cls-1" d="M791.16,425.8a17.12,17.12,0,0,0,.71,5.52,5.68,5.68,0,0,0,3.23,3.23q2.52,1.18,7.73,1.19v22.07l-4,.16q-4.41.31-7.25.32-11.67,0-19.48-6.31t-7.8-24.6V391h-6V369.66h6v-21h26.81v21h9.93V391h-9.93Z"/><path class="cls-1" d="M883.94,424.07q0,6.78-.63,14.51-.94,11-8.67,14.74T854.45,457H817.87l-.16-110.4h40.21q11.36,0,17.19,4.26t6.63,13.41q.63,8.52.63,12.93a90.6,90.6,0,0,1-.63,10.88,22.42,22.42,0,0,1-3.16,9.78q3.95,3.94,4.73,12.46Q883.94,418.85,883.94,424.07Zm-38.63-62v30.44a36.23,36.23,0,0,0,4.41-.32,6.57,6.57,0,0,0,4.18-2.13,8.77,8.77,0,0,0,2.13-4.65,41.78,41.78,0,0,0,.63-7.73c0-1.15-.1-3.52-.31-7.09q-.32-4.42-2-6.31a6.59,6.59,0,0,0-4.34-2.21A17.82,17.82,0,0,0,845.31,362.09Zm12.93,63.55c0-2.41-.11-5.41-.32-9-.21-3-.86-5.05-2-6.31a6.52,6.52,0,0,0-4.33-2.21,30.09,30.09,0,0,0-6.15,0V443a37.28,37.28,0,0,0,5.83-.31,6.57,6.57,0,0,0,4.18-2.13,9,9,0,0,0,2.13-4.66A60.07,60.07,0,0,0,858.24,425.64Z"/><path class="cls-1" d="M895.46,361.46a14.87,14.87,0,0,1-4.58-10.88,14.58,14.58,0,0,1,4.58-10.8,15,15,0,0,1,10.88-4.5,15.36,15.36,0,0,1,15.3,15.3,15,15,0,0,1-4.5,10.88,14.6,14.6,0,0,1-10.8,4.57A14.83,14.83,0,0,1,895.46,361.46Z"/><rect class="cls-1" x="893.09" y="370.29" width="26.81" height="86.74"/><path class="cls-1" d="M960.74,426.43a17.4,17.4,0,0,0,.71,5.52,5.74,5.74,0,0,0,3.24,3.24c1.68.78,4.25,1.18,7.72,1.18v22.08l-3.94.15q-4.41.31-7.25.32-11.67,0-19.48-6.31T933.93,428V391.58h-6V370.29h6v-21h26.81v21h9.94v21.29h-9.94Z"/><rect class="cls-1" x="547.59" y="534.19" width="48.13" height="14.38"/></svg>