<svg width="150" height="28" viewBox="0 0 150 28" fill="none" xmlns="http://www.w3.org/2000/svg">
  <path fill-rule="evenodd" clip-rule="evenodd" d="M13.6574 27.6576C6.11463 27.6576 0 21.543 0 14.0002C0 6.45741 6.11463 0.342773 13.6574 0.342773H52.6786L49.2503 8.34212H36.3873L35.4117 10.4883H45.6218L42.3209 17.9023H32.0949L27.8026 27.6576L13.6574 27.6576ZM22.8274 14.0002C22.8274 19.0646 18.7219 23.1702 13.6574 23.1702C8.59297 23.1702 4.48744 19.0646 4.48744 14.0002C4.48744 8.93575 8.59297 4.83021 13.6574 4.83021C18.7219 4.83021 22.8274 8.93575 22.8274 14.0002Z" fill="url(#paint0_linear_295_4377)"/>
  <path d="M48.0937 10.4883H57.3612L54.0444 17.9023H44.7769L48.0937 10.4883Z" fill="#5CE6B8"/>
  <path d="M33.5584 19.8535H49.1669L45.7525 27.6578H30.144L33.5584 19.8535Z" fill="#5CE6B8"/>
  <path d="M73.4074 8.2H80.0074V6.24H74.4474C74.6074 5.88 74.7474 5.52 74.9074 5.12L72.8674 4.32C72.1874 6.42 71.1074 8.1 69.6674 9.36L71.2274 10.76C71.3274 10.68 71.4274 10.58 71.5474 10.48C71.5074 11.6 71.4274 12.72 71.3274 13.88H69.9274V15.68H71.1274C70.9474 17.18 70.7074 18.7 70.4074 20.26H77.1874C77.1874 20.3 77.1674 20.32 77.1674 20.36C77.0074 20.72 76.7874 20.96 76.4674 21.08C76.1474 21.16 75.7674 21.22 75.3274 21.22C75.0074 21.22 74.6674 21.18 74.3074 21.14L74.9274 23.04C75.1874 23.04 75.4274 23.02 75.6274 23.02C76.6274 23.02 77.4074 22.86 77.9474 22.56C78.4474 22.28 78.8074 21.82 79.0074 21.18C79.0474 21.04 79.0874 20.74 79.1474 20.26H80.5074V18.42H79.2874C79.3274 17.66 79.3674 16.76 79.4074 15.68H80.6674V13.88H79.4674C79.5074 13.14 79.5274 12.34 79.5674 11.5L80.7074 12.94C80.9074 12.7 81.1274 12.44 81.3474 12.16C81.8474 14.06 82.4874 15.82 83.2474 17.46C82.4274 19.02 81.3474 20.28 79.9874 21.24L81.1274 23.04C82.3674 22.08 83.4474 20.92 84.3274 19.52C85.0674 20.8 85.9074 22 86.8674 23.08L88.2274 21.48C87.1674 20.26 86.2274 18.9 85.4074 17.42C86.3674 15.18 86.8874 12.52 87.0074 9.42H88.1874V7.4H83.5874C83.8274 6.56 84.0474 5.68 84.2274 4.72L82.1674 4.38C81.7074 7.18 80.8474 9.44 79.5674 11.2L79.6274 9.38H72.5474C72.8274 9.02 73.1274 8.62 73.4074 8.2ZM84.2474 15C83.5874 13.44 83.0474 11.76 82.6274 9.96C82.7074 9.8 82.7874 9.62 82.8674 9.42H85.1074C85.0274 11.5 84.7274 13.36 84.2474 15ZM74.6274 11.22L73.8474 11.98C74.5474 12.64 75.1074 13.28 75.5474 13.88H73.2874C73.3474 13.04 73.4074 12.16 73.4474 11.22H74.6274ZM75.9274 13.88L76.8274 12.98C76.4074 12.4 75.8874 11.82 75.2874 11.22H77.6874C77.6474 12.16 77.6074 13.04 77.5874 13.88H75.9274ZM77.5074 15.68C77.4474 16.76 77.4074 17.68 77.3674 18.42H75.6474L76.5074 17.58C76.0474 16.94 75.4874 16.32 74.8274 15.68H77.5074ZM74.5074 15.68L73.5674 16.6C74.2474 17.24 74.7874 17.84 75.2074 18.42H72.7274C72.8674 17.58 72.9874 16.66 73.1074 15.68H74.5074ZM106.847 16.14V13.26H108.007V11.5H106.847V8.64H102.987V7.6H107.827V5.78H102.987V4.6H101.007V5.78H96.5874V7.6H101.007V8.64H97.5874V10.4H101.007V11.5H96.7074V13.26H101.007V14.38H97.4474V16.14H101.007V20.34C100.927 20.32 100.847 20.3 100.767 20.26C100.087 20 99.4674 19.42 98.9074 18.5C99.0274 18.02 99.1274 17.5 99.2074 16.94L97.2874 16.64C96.9674 18.92 96.2674 20.68 95.1474 21.96L96.8074 23.12C97.4274 22.44 97.9474 21.54 98.3474 20.42C98.8674 21.2 99.4274 21.74 100.027 22.06C100.947 22.5 102.667 22.72 105.147 22.74C105.907 22.76 106.787 22.78 107.747 22.78L108.367 20.68C107.447 20.76 106.327 20.82 105.007 20.82C104.267 20.82 103.587 20.78 102.987 20.72V19.18H107.207V17.38H102.987V16.14H106.847ZM102.987 10.4H104.967V11.5H102.987V10.4ZM104.967 13.26V14.38H102.987V13.26H104.967ZM92.4074 22.86C93.7474 22.86 94.4274 22.16 94.4274 20.8V15.26C94.9874 14.98 95.5674 14.68 96.1474 14.36V12.24C95.5674 12.58 94.9874 12.9 94.4274 13.18V10.04H96.3274V8.02H94.4274V4.62H92.3474V8.02H90.1474V10.04H92.3474V14.1C91.4874 14.42 90.6274 14.68 89.7674 14.9L90.3074 17C90.9874 16.76 91.6674 16.5 92.3474 16.22V20.28C92.3474 20.76 92.1274 21 91.6874 21C91.2274 21 90.7474 20.96 90.2274 20.88L90.6874 22.86H92.4074ZM111.167 5.58V7.6H114.627V11.86C114.627 11.98 114.607 12.08 114.607 12.2H110.147V14.22H114.467C114.307 15.58 114.047 16.76 113.687 17.76C113.127 19.16 112.047 20.34 110.427 21.28L111.567 23.06C113.347 22.16 114.627 20.86 115.407 19.18C115.987 17.84 116.387 16.18 116.587 14.22H121.767V22.8H123.867V14.22H128.007V12.2H123.867V7.6H127.007V5.58H111.167ZM116.747 7.6H121.767V12.2H116.727C116.727 12.08 116.747 11.98 116.747 11.86V7.6ZM135.607 4.66L133.687 5.58C134.387 6.44 135.047 7.42 135.687 8.5H131.527V10.54H138.007V11.02C137.967 11.94 137.867 12.82 137.707 13.62H130.387V15.66H137.107C136.867 16.26 136.567 16.82 136.227 17.34C135.147 18.84 133.087 20.1 130.007 21.1L131.147 22.92C134.227 21.96 136.447 20.58 137.807 18.78C138.287 18.1 138.707 17.32 139.067 16.48C140.247 19.22 142.887 21.44 147.007 23.12L148.247 21.14C144.287 19.78 141.807 17.96 140.847 15.66H147.747V13.62H139.847C139.987 12.82 140.087 11.94 140.127 11.02V10.54H146.587V8.5H142.887C143.507 7.48 144.027 6.34 144.467 5.08L142.427 4.52C141.887 6.04 141.267 7.38 140.547 8.5H136.607L137.767 7.92C137.067 6.74 136.347 5.66 135.607 4.66Z" fill="#1C1133"/>
  <defs>
    <linearGradient id="paint0_linear_295_4377" x1="0" y1="14.0002" x2="46.8742" y2="14.0002" gradientUnits="userSpaceOnUse">
      <stop stop-color="#443F5A"/>
      <stop offset="1" stop-color="#5A527D"/>
    </linearGradient>
  </defs>
</svg>
