<svg id="图层_1" data-name="图层 1" xmlns="http://www.w3.org/2000/svg" viewBox="0 0 1024 1024"><path class="cls-1" d="M197.73,404.66v44.4H125.38v49.36h65.77v44.39H125.71v93.75H68.16V542.81h-.33V404.66Z"/><path class="cls-1" d="M288.81,576.6l.33-11.6h53.93q-.66,21.21-1.31,31.14-3.28,45.72-63.8,45.72-26.31,0-44.23-9.28t-20.88-36.44q-2-17.88-2-51.34,0-21.19,1.31-45.06,2-27.5,19.57-39.42T278,448.39q26.64,0,44.89,12.1t19.57,39.25q.65,17.89.65,53H266.12l.33,34.78q.33,8.94,3.78,13.09a10.57,10.57,0,0,0,8.39,4.14c3.5,0,5.92-1.27,7.23-3.81s2.19-6.9,2.63-13.09C288.7,586.1,288.81,582.34,288.81,576.6Zm-17.92-87.46q-3.45,3.32-3.78,10.27-.66,9.94-.66,21.53h22.36l-.33-21.2q-.33-7.62-2.63-10.76a7.65,7.65,0,0,0-6.57-3.15A11.7,11.7,0,0,0,270.89,489.14Z"/><path class="cls-1" d="M476.42,461.15q16.93,12.09,16.94,45.88V636.56H437.12V623q-14.79,16.56-35.51,16.56-16.12,0-26.64-8.28t-13.48-25.18a167.06,167.06,0,0,1-2-27.16q0-21.2,4.28-31.14Q373,526.59,404.89,520q9.87-2,31.57-7.29v-8.28q0-10.26-2-14.08c-1.31-2.54-3.73-3.81-7.23-3.81q-5.6,0-7.73,3.81t-2.47,16.07l-52.29,5q0-30.48,16.78-46.38t47.68-15.9Q459.48,449.06,476.42,461.15ZM436.79,595.81V542.48a53.36,53.36,0,0,0-10.85,4.3q-8.22,4.32-9.54,14.58c-.44,4.42-.65,8.17-.65,11.26a109.4,109.4,0,0,0,1.31,16.57q2,9.93,11.18,9.94A11.51,11.51,0,0,0,436.79,595.81Z"/><path class="cls-1" d="M578.2,572.29a36.66,36.66,0,0,0,1.48,11.6q1.47,4.3,6.74,6.79t16.11,2.48v46.38l-8.22.33q-9.21.66-15.13.67-24.33,0-40.61-13.26t-16.28-51.67V499.08H509.8V454.36h12.49V410.3H578.2v44.06h20.71v44.72H578.2Z"/><path class="cls-1" d="M771.69,568.65q0,14.25-1.32,30.48-2,23.19-18.08,31t-42.1,7.79H633.9L633.57,406h83.86q23.67,0,35.84,8.95t13.81,28.15q1.32,17.9,1.32,27.17a190.78,190.78,0,0,1-1.32,22.86q-1.3,12.25-6.57,20.54,8.21,8.28,9.86,26.17Q771.69,557.71,771.69,568.65ZM691.12,438.46v63.93a75.25,75.25,0,0,0,9.21-.66,13.67,13.67,0,0,0,8.71-4.47,18.77,18.77,0,0,0,4.44-9.78,88.73,88.73,0,0,0,1.32-16.23c0-2.43-.22-7.39-.66-14.91q-.66-9.27-4.11-13.25a13.64,13.64,0,0,0-9-4.63A37,37,0,0,0,691.12,438.46Zm27,133.5q0-7.62-.65-18.88c-.45-6.18-1.81-10.6-4.11-13.25a13.67,13.67,0,0,0-9.05-4.64,62.41,62.41,0,0,0-12.82,0V608.4a77.17,77.17,0,0,0,12.17-.66,13.67,13.67,0,0,0,8.71-4.47,18.77,18.77,0,0,0,4.44-9.78Q718.08,586.55,718.08,572Z"/><path class="cls-1" d="M795.69,437.13a31.3,31.3,0,0,1-9.53-22.86,30.77,30.77,0,0,1,9.53-22.69,31.16,31.16,0,0,1,22.69-9.44,30.63,30.63,0,0,1,22.53,9.44,31,31,0,0,1,9.37,22.69,31.59,31.59,0,0,1-9.37,22.86,30.34,30.34,0,0,1-22.53,9.61A30.86,30.86,0,0,1,795.69,437.13Z"/><rect class="cls-1" x="790.76" y="455.68" width="55.9" height="182.2"/><path class="cls-1" d="M931.84,573.62a36.55,36.55,0,0,0,1.48,11.59q1.47,4.32,6.74,6.79t16.11,2.49v46.38l-8.22.33q-9.21.66-15.13.66-24.33,0-40.61-13.25t-16.28-51.68V500.41h-12.5V455.68h12.5V411.62h55.91v44.06h20.71v44.73H931.84Z"/></svg>
