<svg id="图层_1" data-name="图层 1" xmlns="http://www.w3.org/2000/svg" viewBox="0 0 1024 1024"><defs><style>.cls-1{fill:#2b2b2b;}</style></defs><g id="黑色"><path class="cls-1" d="M991.85,309.62c-14.54-34.05-87.23-39.23-191.33-20a20.69,20.69,0,0,1-20-7.44,372.12,372.12,0,0,0-65.48-63.94c-.26-.24-.53-.46-.82-.68-64.3-48.6-141-74.3-222-74.3A368.77,368.77,0,0,0,123.75,500.77c-.11,3.68-.18,7.47-.18,11.24A372.77,372.77,0,0,0,128,569.1a20.73,20.73,0,0,1-7.63,19.41C53.67,641.25,19.41,688.05,32.16,717.9c13,30.42,72.37,37.8,159.12,25.31a22.26,22.26,0,0,1,20.1,7.6q9.6,11.28,20.19,21.88A368.7,368.7,0,0,0,861,512q0-13.81-1-27.45a22.27,22.27,0,0,1,9.27-19.81C958.13,401.7,1006.62,344.27,991.85,309.62ZM808.32,431.19c-6.85,39.55-47.94,51.55-84.7,46.05-32.19-4.8-64.81-28.12-98.07-1.56-34.34,27.35-24.34,68.94-20.26,99.16a203.36,203.36,0,0,1,1.79,35.88c-1.2,26-9,51.39-24.48,72.5-79.79,108.89-318.39,82.33-361-58.27-6.27-20.7-7.16-50.7,8.79-75.84,5.21-8.21-2.52-18.49-11.93-16.11-51.14,13-82,7.6-82.18-31.85,5.25-189.42,162.91-345.29,356-345.29,80.48,0,160.86,23.8,214.4,71.75,0,0,0,.07,0,.07,35.3,32.64,11.26,85.89-70,129.46,42.81-10.62,79.85-12.69,105.73-8.82C784.88,354.62,816.11,385.88,808.32,431.19Z"/><path class="cls-1" d="M595.16,368.58a30,30,0,1,1-30-30A30,30,0,0,1,595.16,368.58Z"/><path class="cls-1" d="M376.08,489.14a30,30,0,1,1-30-30A30,30,0,0,1,376.08,489.14Z"/></g></svg>