<svg width="52" height="47" viewBox="0 0 52 47" fill="none" xmlns="http://www.w3.org/2000/svg">
<path fill-rule="evenodd" clip-rule="evenodd" d="M23.9159 45.8741C35.7538 45.8741 45.4971 36.9064 46.723 25.3939C46.96 25.2832 47.1942 25.1613 47.425 25.0281C51.7349 22.5398 53.2116 17.0287 50.7233 12.7188C48.8176 9.41813 45.1391 7.77916 41.585 8.31028C37.3777 3.23368 31.0245 0 23.9159 0C11.2481 0 0.978855 10.2693 0.978855 22.9371C0.978855 25.7589 1.48841 28.4617 2.42053 30.9585C-0.212412 33.78 -0.821146 38.0952 1.20875 41.6111C3.69707 45.921 9.2081 47.3976 13.518 44.9093C13.9851 44.6396 14.419 44.3344 14.8181 43.9991C17.6074 45.2055 20.6836 45.8741 23.9159 45.8741ZM27.1927 32.7673C34.4314 32.7673 40.2996 26.8991 40.2996 19.6604C40.2996 12.4216 34.4314 6.55345 27.1927 6.55345C19.9539 6.55345 14.0858 12.4216 14.0858 19.6604C14.0858 26.8991 19.9539 32.7673 27.1927 32.7673ZM31.1879 23.6386C34.3224 21.829 35.3963 17.8209 33.5866 14.6865C31.7769 11.552 27.7689 10.478 24.6344 12.2877C21.5 14.0974 20.426 18.1054 22.2357 21.2399C24.0454 24.3744 28.0534 25.4483 31.1879 23.6386Z" fill="#24292f"/>
</svg>
